<svg width="1440" height="666" viewBox="0 0 1440 666" fill="none" xmlns="http://www.w3.org/2000/svg">
<g style="mix-blend-mode:color-dodge" opacity="0.48">
<path d="M-20 -40.8198V-38.2269L60.5854 0.937904L-20 -23.2376V-20.8423L73.5626 7.2349L74.5799 5.16059L-20 -40.8198Z" fill="#3B3B3B"/>
</g>
<g style="mix-blend-mode:color-dodge" opacity="0.38">
<path d="M338.661 -107L175.318 40.1028L177.133 41.7079L342.235 -107H338.661Z" fill="#3B3B3B"/>
</g>
<g style="mix-blend-mode:color-dodge" opacity="0.38">
<path d="M353.124 -107L448.282 117L177.959 44.6465L177.244 46.8443L450.014 119.84L452.461 120.507L355.846 -107H353.124Z" fill="#3B3B3B"/>
</g>
<g style="mix-blend-mode:color-dodge" opacity="0.02">
<path d="M176.225 50.7459C173.201 49.931 171.469 47.0665 172.376 44.3501C173.283 41.6338 176.473 40.078 179.497 40.8929C182.521 41.7079 184.253 44.5724 183.346 47.2887C182.439 50.0051 179.25 51.5608 176.225 50.7459Z" fill="#3B3B3B"/>
</g>
<g style="mix-blend-mode:color-dodge" opacity="0.42">
<path d="M172.377 37.0901C170.15 39.0904 170.15 42.35 172.377 44.3502C174.604 46.3504 178.234 46.3504 180.461 44.3502C182.688 42.35 182.688 39.0904 180.461 37.0901C178.234 35.0899 174.604 35.0899 172.377 37.0901Z" fill="#3B3B3B"/>
</g>
<g style="mix-blend-mode:color-dodge" opacity="0.31">
<path d="M386.556 -107H378.253L439.757 -89.2943L448.803 111.839L355.845 -107H353.123L447.263 114.605L449.27 113.913L451.415 113.839L442.232 -90.9735L386.556 -107Z" fill="#3B3B3B"/>
</g>
<g style="mix-blend-mode:color-dodge" opacity="0.28">
<path d="M455.841 113.42C455.979 116.259 453.504 118.63 450.37 118.753C447.208 118.877 444.569 116.654 444.431 113.839C444.294 111 446.768 108.629 449.903 108.505C453.064 108.382 455.704 110.604 455.841 113.42Z" fill="#3B3B3B"/>
</g>
<g style="mix-blend-mode:color-dodge" opacity="0.24">
<path d="M443.002 115.79C444.13 118.433 447.429 119.766 450.371 118.754C453.313 117.741 454.797 114.778 453.67 112.136C452.543 109.493 449.244 108.16 446.302 109.172C443.36 110.185 441.875 113.148 443.002 115.79Z" fill="#3B3B3B"/>
</g>
<g style="mix-blend-mode:color-dodge" opacity="0.5">
<path d="M338.661 -107L173.751 41.5103L179.14 -107H176.611L171.029 47.19L342.235 -107H338.661Z" fill="#3B3B3B"/>
</g>
<g style="mix-blend-mode:color-dodge" opacity="0.3">
<path d="M176.61 -107L171.194 42.2018L110.707 3.53082L164.348 -107H161.598L107.545 4.32104L173.586 46.4986L179.14 -107H176.61Z" fill="#3B3B3B"/>
</g>
<g style="mix-blend-mode:color-dodge" opacity="0.15">
<path d="M638.513 77.0452C641.593 76.4525 644.645 78.2058 645.304 80.9716C645.964 83.7373 644.012 86.4783 640.933 87.071C637.854 87.6636 634.802 85.9104 634.142 83.1446C633.482 80.3789 635.434 77.6378 638.513 77.0452Z" fill="#3B3B3B"/>
</g>
<g style="mix-blend-mode:color-dodge" opacity="0.28">
<path d="M637.221 81.2432C639.531 83.1693 643.132 83.0705 645.304 80.9962C647.449 78.9219 647.339 75.6623 645.029 73.7362C642.72 71.81 639.091 71.9088 636.946 73.9831C634.802 76.0574 634.911 79.2924 637.221 81.2432Z" fill="#3B3B3B"/>
</g>
<g style="mix-blend-mode:color-dodge" opacity="0.39">
<path d="M592.735 126.779L592.213 126.754L440.857 119.42L639.723 80.8975L640.273 83.1199L459.883 118.062L591.8 124.458L640.493 83.4903L642.225 85.1448L592.735 126.779Z" fill="#3B3B3B"/>
</g>
<g style="mix-blend-mode:color-dodge" opacity="0.53">
<path d="M638.513 77.0452C641.593 76.4525 644.645 78.2058 645.304 80.9716C645.964 83.7373 644.012 86.4783 640.933 87.071C637.854 87.6636 634.802 85.9104 634.142 83.1446C633.482 80.3789 635.434 77.6378 638.513 77.0452Z" fill="#3B3B3B"/>
</g>
<g style="mix-blend-mode:color-dodge" opacity="0.15">
<path d="M645.057 88.2316C647.366 86.3055 647.476 83.0458 645.332 80.9715C643.187 78.8972 639.558 78.7984 637.248 80.7246C634.939 82.6507 634.829 85.9104 636.973 87.9847C639.118 90.059 642.747 90.1577 645.057 88.2316Z" fill="#3B3B3B"/>
</g>
<g style="mix-blend-mode:color-dodge" opacity="0.49">
<path d="M648.714 77.0205L646.432 76.0821L695.619 -20.0027L445.834 -87.6398L642.198 76.8229L640.465 78.5021L436.156 -92.6527L699.138 -21.4349L648.714 77.0205Z" fill="#3B3B3B"/>
</g>
<g style="mix-blend-mode:color-dodge" opacity="0.37">
<path d="M645.028 73.7362C647.338 75.6623 647.475 78.9219 645.303 80.9963C643.159 83.0706 639.53 83.194 637.22 81.2432C634.911 79.2924 634.773 76.0574 636.945 73.9831C639.09 71.9088 642.719 71.7854 645.028 73.7362Z" fill="#3B3B3B"/>
</g>
<g style="mix-blend-mode:color-dodge" opacity="0.28">
<path d="M642.5 74.1807C641.18 76.7488 642.445 79.8109 645.304 80.9962C648.164 82.1815 651.573 81.0456 652.893 78.4774C654.212 75.9092 652.948 72.8472 650.088 71.6618C647.229 70.4765 643.82 71.6125 642.5 74.1807Z" fill="#3B3B3B"/>
</g>
<g style="mix-blend-mode:color-dodge" opacity="0.48">
<path d="M-20 62.9943V68.3529L65.3694 231.532L-17.1681 275.364L-15.8759 277.339L68.6412 232.421L-20 62.9943Z" fill="#3B3B3B"/>
</g>
<g style="mix-blend-mode:color-dodge" opacity="0.28">
<path d="M-20 -23.2375V-20.8422L72.6828 6.98804L65.8918 227.161L-20 63.019V68.3529L68.1188 236.791L75.2398 6.19782L75.2673 5.35822L-20 -23.2375Z" fill="#3B3B3B"/>
</g>
<g style="mix-blend-mode:color-dodge" opacity="0.3">
<path d="M-20 -40.8198V-38.2269L78.4566 9.655L-7.57264 -93.0972L-9.6072 -91.739L69.466 2.69125L-20 -40.8198Z" fill="#3B3B3B"/>
</g>
<g style="mix-blend-mode:color-dodge" opacity="0.48">
<path d="M112.137 4.88895L73.37 7.35835L72.9576 6.86447L-9.60742 -91.7391L-8.17772 -92.7022L-6.99548 -93.8628L112.137 4.88895ZM74.5522 4.98771L106.116 2.9875L-2.43144 -86.9731L74.5797 4.98771H74.5522Z" fill="#3B3B3B"/>
</g>
<g style="mix-blend-mode:color-dodge" opacity="0.04">
<path d="M161.6 -107L108.674 2.02448L-6.99443 -93.838L-8.72656 -92.1588L109.581 5.85207L164.349 -107H161.6Z" fill="#3B3B3B"/>
</g>
<g style="mix-blend-mode:color-dodge" opacity="0.7">
<path d="M289.42 204.047L206.223 224.568L216.78 124.532L291.592 197.306L289.722 198.861L218.787 129.817L209.11 221.506L288.76 201.849L289.42 204.047Z" fill="#3B3B3B"/>
</g>
<g style="mix-blend-mode:color-dodge" opacity="0.26">
<path d="M294.644 194.416C296.789 196.491 296.651 199.75 294.314 201.676C292.005 203.602 288.376 203.479 286.231 201.38C284.087 199.306 284.224 196.046 286.561 194.12C288.871 192.194 292.5 192.317 294.644 194.416Z" fill="#3B3B3B"/>
</g>
<g style="mix-blend-mode:color-dodge" opacity="0.53">
<path d="M290.327 207.973C293.379 207.232 295.166 204.393 294.314 201.676C293.489 198.935 290.327 197.33 287.303 198.096C284.251 198.836 282.464 201.676 283.316 204.393C284.141 207.134 287.303 208.739 290.327 207.973Z" fill="#3B3B3B"/>
</g>
<g style="mix-blend-mode:color-dodge" opacity="0.62">
<path d="M458.013 119.618L216.999 128.335L216.641 127.668L173.641 49.2396L175.923 48.2271L218.539 126.014L442.726 117.889L177.242 46.8443L177.957 44.6465L458.013 119.618Z" fill="#3B3B3B"/>
</g>
<g style="mix-blend-mode:color-dodge" opacity="0.26">
<path d="M176.225 50.7459C173.201 49.931 171.469 47.0665 172.376 44.3501C173.283 41.6338 176.473 40.078 179.497 40.8929C182.521 41.7079 184.253 44.5724 183.346 47.2887C182.439 50.0051 179.25 51.5608 176.225 50.7459Z" fill="#3B3B3B"/>
</g>
<g style="mix-blend-mode:color-dodge" opacity="0.49">
<path d="M180.047 46.6961C178.645 44.1526 175.235 43.1154 172.404 44.3501C169.572 45.6095 168.417 48.6716 169.792 51.2151C171.194 53.7586 174.603 54.7957 177.435 53.561C180.267 52.3016 181.422 49.2396 180.047 46.6961Z" fill="#3B3B3B"/>
</g>
<g style="mix-blend-mode:color-dodge" opacity="0.68">
<path d="M423.894 157.869L293.984 203.01L293.407 202.442L214.416 125.569L423.317 153.226L422.932 155.474L221.152 128.779L294.671 200.318L422.959 155.745L423.894 157.869Z" fill="#3B3B3B"/>
</g>
<g style="mix-blend-mode:color-dodge" opacity="0.15">
<path d="M423.674 149.226C426.808 149.646 428.953 152.239 428.485 155.054C428.018 157.869 425.131 159.795 421.997 159.375C418.862 158.955 416.718 156.363 417.185 153.547C417.652 150.732 420.539 148.806 423.674 149.226Z" fill="#3B3B3B"/>
</g>
<g style="mix-blend-mode:color-dodge" opacity="0.62">
<path d="M425.212 161.696C428.154 160.684 429.612 157.696 428.484 155.054C427.357 152.412 424.03 151.103 421.088 152.115C418.146 153.128 416.689 156.116 417.817 158.758C418.944 161.4 422.271 162.709 425.212 161.696Z" fill="#3B3B3B"/>
</g>
<g style="mix-blend-mode:color-dodge" opacity="0.22">
<path d="M432.197 151.3L429.97 150.238L448.199 119.963L231.353 127.816L423.317 153.226L422.932 155.474L217.605 128.31L217.743 126.038L452.543 117.543L432.197 151.3Z" fill="#3B3B3B"/>
</g>
<g style="mix-blend-mode:color-dodge" opacity="0.28">
<path d="M436.239 152.98C434.726 155.474 431.262 156.387 428.485 155.054C425.708 153.696 424.691 150.584 426.176 148.09C427.66 145.596 431.152 144.682 433.929 146.016C436.706 147.374 437.723 150.485 436.239 152.98Z" fill="#3B3B3B"/>
</g>
<g style="mix-blend-mode:color-dodge" opacity="0.67">
<path d="M421.996 159.4C425.13 159.82 428.017 157.869 428.485 155.079C428.952 152.263 426.78 149.671 423.673 149.251C420.539 148.831 417.652 150.782 417.184 153.572C416.717 156.387 418.889 158.98 421.996 159.4Z" fill="#3B3B3B"/>
</g>
<g style="mix-blend-mode:color-dodge" opacity="0.31">
<path d="M202.346 224.518L64.4902 233.285L160.087 106.184L206.938 218.073L204.573 218.863L159.455 111.098L69.4942 230.667L202.154 222.247L202.346 224.518Z" fill="#3B3B3B"/>
</g>
<g style="mix-blend-mode:color-dodge" opacity="0.23">
<path d="M211.007 216.443C212.107 219.086 210.622 222.049 207.68 223.061C204.738 224.049 201.439 222.716 200.312 220.073C199.212 217.431 200.697 214.468 203.639 213.455C206.581 212.468 209.88 213.801 211.007 216.443Z" fill="#3B3B3B"/>
</g>
<g style="mix-blend-mode:color-dodge" opacity="0.13">
<path d="M202.374 228.519C205.535 228.321 207.9 225.877 207.68 223.037C207.46 220.197 204.738 218.073 201.576 218.271C198.442 218.468 196.05 220.913 196.27 223.753C196.49 226.568 199.239 228.716 202.374 228.519Z" fill="#3B3B3B"/>
</g>
<g style="mix-blend-mode:color-dodge" opacity="0.68">
<path d="M72.8751 226.988C72.7926 229.828 70.1532 232.05 66.9914 231.976C63.8295 231.902 61.3551 229.531 61.4376 226.691C61.52 223.852 64.1595 221.629 67.3213 221.703C70.4831 221.777 72.9576 224.148 72.8751 226.988Z" fill="#3B3B3B"/>
</g>
<g style="mix-blend-mode:color-dodge" opacity="0.48">
<path d="M65.4787 224.839C63.7191 227.185 64.4064 230.371 67.0184 231.976C69.6303 233.556 73.1771 232.939 74.9642 230.593C76.7238 228.247 76.0365 225.062 73.4245 223.456C70.8126 221.876 67.2658 222.493 65.4787 224.839Z" fill="#3B3B3B"/>
</g>
<g style="mix-blend-mode:color-dodge" opacity="0.13">
<path d="M209.44 218.295L206.938 218.073L204.573 218.863L157.641 106.728L219.145 126.384L219.063 127.273L209.44 218.295ZM161.93 110.53L206.91 218.024L216.423 127.94L161.93 110.53Z" fill="#3B3B3B"/>
</g>
<g style="mix-blend-mode:color-dodge" opacity="0.67">
<path d="M213.894 218.419C213.591 221.234 210.814 223.308 207.652 223.037C204.518 222.765 202.209 220.271 202.511 217.431C202.813 214.616 205.59 212.542 208.752 212.813C211.886 213.085 214.196 215.579 213.894 218.419Z" fill="#3B3B3B"/>
</g>
<g style="mix-blend-mode:color-dodge" opacity="0.14">
<path d="M200.311 220.049C201.411 222.691 204.71 224.049 207.68 223.037C210.622 222.049 212.134 219.086 211.007 216.419C209.907 213.776 206.607 212.418 203.638 213.431C200.696 214.418 199.184 217.382 200.311 220.049Z" fill="#3B3B3B"/>
</g>
<g style="mix-blend-mode:color-dodge" opacity="0.49">
<path d="M165.229 117.025L76.2305 10.7415L78.2375 9.38332L154.341 100.258L108.316 5.11124L79.4748 6.9633L79.2823 4.69144L109.938 2.7406L165.229 117.025Z" fill="#3B3B3B"/>
</g>
<g style="mix-blend-mode:color-dodge" opacity="0.52">
<path d="M80.0788 10.9144C76.917 11.1119 74.1951 8.98822 73.9751 6.1484C73.7552 3.30857 76.1197 0.863854 79.2815 0.666301C82.4158 0.468748 85.1652 2.59244 85.3852 5.43226C85.6052 8.27209 83.2407 10.7168 80.0788 10.9144Z" fill="#3B3B3B"/>
</g>
<g style="mix-blend-mode:color-dodge" opacity="0.48">
<path d="M81.9752 7.1855C80.0781 4.91364 76.5038 4.46914 73.9744 6.17304C71.4449 7.87693 70.95 11.0872 72.8471 13.359C74.7442 15.6309 78.3184 16.0754 80.8479 14.3715C83.3774 12.6676 83.8723 9.45735 81.9752 7.1855Z" fill="#3B3B3B"/>
</g>
<g style="mix-blend-mode:color-dodge" opacity="0.22">
<path d="M160.308 112.555L110.131 8.86477L112.468 7.95109L159.263 104.703L171.003 44.8688L112.825 7.67945L114.282 5.82739L173.78 43.8563L173.642 44.5477L160.308 112.555Z" fill="#3B3B3B"/>
</g>
<g style="mix-blend-mode:color-dodge" opacity="0.24">
<path d="M110.488 11.0872C107.903 9.43269 107.326 6.24715 109.14 3.9259C110.983 1.60465 114.529 1.08608 117.114 2.71589C119.698 4.3704 120.276 7.55594 118.461 9.87719C116.619 12.1984 113.072 12.717 110.488 11.0872Z" fill="#3B3B3B"/>
</g>
<g style="mix-blend-mode:color-dodge" opacity="0.29">
<path d="M116.646 6.59282C115.382 3.99994 112.027 2.78993 109.14 3.92586C106.254 5.06179 104.906 8.07448 106.171 10.6674C107.436 13.2602 110.79 14.4702 113.677 13.3343C116.564 12.1984 117.911 9.18571 116.646 6.59282Z" fill="#3B3B3B"/>
</g>
<g style="mix-blend-mode:color-dodge" opacity="0.55">
<path d="M212.244 126.606L158.355 109.394L171.828 40.7201L216.533 122.285L214.251 123.297L172.955 47.9802L161.215 107.888L213.096 124.458L212.244 126.606Z" fill="#3B3B3B"/>
</g>
<g style="mix-blend-mode:color-dodge" opacity="0.11">
<path d="M220.381 120.309C221.783 122.853 220.601 125.939 217.769 127.174C214.937 128.434 211.5 127.372 210.126 124.828C208.751 122.285 209.906 119.198 212.738 117.963C215.569 116.704 219.006 117.766 220.381 120.309Z" fill="#3B3B3B"/>
</g>
<g style="mix-blend-mode:color-dodge" opacity="0.45">
<path d="M210.485 130.286C213.454 131.224 216.726 129.841 217.771 127.174C218.815 124.507 217.276 121.569 214.306 120.605C211.337 119.667 208.065 121.05 207.02 123.717C205.976 126.384 207.515 129.322 210.485 130.286Z" fill="#3B3B3B"/>
</g>
<g style="mix-blend-mode:color-dodge" opacity="0.48">
<path d="M338.496 -20.6941L488.834 -10.5695L460.323 2.51836L459.333 1.30836L482.373 -9.26072L351.006 -18.1259L450.7 2.61714L449.078 4.22226L337.066 -19.0643L338.496 -20.6941Z" fill="#333333"/>
</g>
<g style="mix-blend-mode:color-dodge" opacity="0.03">
<path d="M453.312 -0.247336C455.978 0.295934 456.501 2.37024 454.466 4.37046C452.432 6.37068 448.61 7.53131 445.943 6.98804C443.276 6.44477 442.754 4.37046 444.788 2.37024C446.823 0.37002 450.645 -0.790606 453.312 -0.247336Z" fill="#333333"/>
</g>
<g style="mix-blend-mode:color-dodge" opacity="0.32">
<path d="M457.876 -0.938819C454.769 0.493439 453.229 2.86407 454.494 4.37041C455.731 5.87675 459.278 5.92614 462.385 4.51858C465.492 3.08632 467.031 0.71568 465.767 -0.79066C464.529 -2.297 460.983 -2.34639 457.876 -0.914129V-0.938819Z" fill="#333333"/>
</g>
<g style="mix-blend-mode:color-dodge" opacity="0.38">
<path d="M236.053 -30.0532L25.9977 106.629L-20 -7.03832V0.4193L23.7982 108.629L24.2381 109.691L237.648 -29.1889L236.053 -30.0532Z" fill="#333333"/>
</g>
<g style="mix-blend-mode:color-dodge" opacity="0.31">
<path d="M-20 -7.03833V0.394601L23.1933 107.197L-20 104.653V106.406L27.015 109.147L-20 -7.03833Z" fill="#333333"/>
</g>
<g style="mix-blend-mode:color-dodge" opacity="0.5">
<path d="M243.476 -34.8932L203.225 96.4054L200.585 96.7264L239.545 -30.4236L28.032 107.221L195.746 99.4921L194.922 101.171L22.1758 109.098L243.476 -34.8932Z" fill="#333333"/>
</g>
<g style="mix-blend-mode:color-dodge" opacity="0.65">
<path d="M207.927 95.6645C207.294 97.7141 204.133 99.6896 200.833 100.085C197.534 100.48 195.362 99.1464 195.994 97.1214C196.627 95.0718 199.788 93.0963 203.088 92.7012C206.387 92.3061 208.559 93.6396 207.927 95.6645Z" fill="#333333"/>
</g>
<g style="mix-blend-mode:color-dodge" opacity="0.13">
<path d="M193.191 104.085C196.38 103.937 199.817 102.134 200.834 100.06C201.851 97.9858 200.092 96.4301 196.902 96.5782C193.713 96.7264 190.276 98.5291 189.259 100.603C188.242 102.678 190.001 104.233 193.191 104.085Z" fill="#333333"/>
</g>
<g style="mix-blend-mode:color-dodge" opacity="0.26">
<path d="M15.7695 107.789L204.819 99.0723L152.223 123.223L151.233 122.013L196.846 101.073L34.4381 108.555L142.243 123.594L140.786 125.223L15.7695 107.789Z" fill="#333333"/>
</g>
<g style="mix-blend-mode:color-dodge" opacity="0.6">
<path d="M144.525 120.68C147.357 121.075 148.154 123.05 146.34 125.075C144.525 127.125 140.758 128.458 137.954 128.063C135.122 127.668 134.325 125.693 136.139 123.668C137.954 121.618 141.721 120.285 144.525 120.68Z" fill="#333333"/>
</g>
<g style="mix-blend-mode:color-dodge" opacity="0.67">
<path d="M149.749 119.766C146.642 121.198 145.102 123.569 146.367 125.075C147.604 126.582 151.151 126.631 154.258 125.223C157.365 123.791 158.904 121.42 157.64 119.914C156.402 118.408 152.856 118.358 149.749 119.766Z" fill="#333333"/>
</g>
<g style="mix-blend-mode:color-dodge" opacity="0.3">
<path d="M240.645 -34.0043L302.287 -13.6069L205.067 96.7263L203.005 96.4547L200.586 96.751L240.645 -33.9796V-34.0043ZM298.823 -12.5698L242.35 -31.2632L203.445 95.6645L298.823 -12.5698Z" fill="#333333"/>
</g>
<g style="mix-blend-mode:color-dodge" opacity="0.28">
<path d="M209.22 97.0721C207.433 99.1218 203.666 100.455 200.834 100.085C198.002 99.6897 197.177 97.7389 198.964 95.6893C200.751 93.6397 204.518 92.3062 207.35 92.6766C210.182 93.0717 211.007 95.0225 209.22 97.0721Z" fill="#333333"/>
</g>
<g style="mix-blend-mode:color-dodge" opacity="0.68">
<path d="M195.994 97.0968C195.362 99.1464 197.534 100.455 200.833 100.06C204.133 99.665 207.294 97.6894 207.927 95.6398C208.559 93.6149 206.387 92.2814 203.088 92.6765C199.788 93.0716 196.627 95.0472 195.994 97.0968Z" fill="#333333"/>
</g>
<g style="mix-blend-mode:color-dodge" opacity="0.03">
<path d="M23.5781 103.196L62.2899 164.24L33.1736 186.86L31.3315 186.144L59.2381 164.487L26.6575 113.148L29.2969 186.144L26.6025 186.786L23.5781 103.196Z" fill="#333333"/>
</g>
<g style="mix-blend-mode:color-dodge" opacity="0.14">
<path d="M33.9979 184.835C34.0804 186.736 31.4134 188.959 28.0591 189.774C24.7049 190.589 21.9279 189.7 21.873 187.774C21.7905 185.872 24.4574 183.65 27.8117 182.835C31.166 182.02 33.9429 182.909 33.9979 184.835Z" fill="#333333"/>
</g>
<g style="mix-blend-mode:color-dodge" opacity="0.63">
<path d="M28.28 184.761C25.8606 186.638 25.7506 188.885 28.0601 189.749C30.3696 190.613 34.2188 189.798 36.6383 187.897C39.0578 186.02 39.1677 183.773 36.8582 182.909C34.5487 182.045 30.6995 182.859 28.28 184.761Z" fill="#333333"/>
</g>
<g style="mix-blend-mode:color-dodge" opacity="0.06">
<path d="M26.4376 107.839V107.37L-20 104.653V106.406L23.7707 108.95L26.6026 186.638L-20 143.176V146.683L24.2931 187.996L26.6576 186.761L29.297 186.144L26.4376 107.839Z" fill="#333333"/>
</g>
<g style="mix-blend-mode:color-dodge" opacity="0.63">
<path d="M33.9979 184.835C34.0804 186.736 31.4134 188.959 28.0591 189.774C24.7049 190.589 21.9279 189.7 21.873 187.774C21.7905 185.872 24.4574 183.65 27.8117 182.835C31.166 182.02 33.9429 182.909 33.9979 184.835Z" fill="#333333"/>
</g>
<g style="mix-blend-mode:color-dodge" opacity="0.24">
<path d="M19.9214 190.045C21.4061 191.428 25.0628 191.305 28.0597 189.749C31.0566 188.193 32.2938 185.823 30.8091 184.44C29.3244 183.057 25.6677 183.181 22.6708 184.736C19.674 186.292 18.4367 188.663 19.9214 190.045Z" fill="#333333"/>
</g>
<g style="mix-blend-mode:color-dodge" opacity="0.13">
<path d="M-20 223.728V225.778L24.5955 193.305L22.8084 192.54L-20 223.728Z" fill="#333333"/>
</g>
<g style="mix-blend-mode:color-dodge" opacity="0.13">
<path d="M26.7126 186.761L-20 143.176V146.683L24.2931 187.996L26.7126 186.761Z" fill="#333333"/>
</g>
<g style="mix-blend-mode:color-dodge" opacity="0.44">
<path d="M30.8091 184.44C32.2938 185.823 31.0566 188.193 28.0597 189.749C25.0628 191.305 21.4061 191.428 19.9214 190.045C18.4367 188.663 19.674 186.292 22.6708 184.736C25.6677 183.181 29.3244 183.057 30.8091 184.44Z" fill="#333333"/>
</g>
<g style="mix-blend-mode:color-dodge" opacity="0.17">
<path d="M27.4551 194.811C29.9845 192.959 30.2595 190.687 28.0599 189.749C25.8604 188.786 22.0387 189.527 19.4818 191.379C16.9523 193.231 16.6774 195.503 18.8769 196.441C21.0764 197.404 24.8981 196.663 27.4551 194.811Z" fill="#333333"/>
</g>
<g style="mix-blend-mode:color-dodge" opacity="0.43">
<path d="M20.1426 106.555L142.244 123.594L140.787 125.223L30.068 109.765L89.3729 145.3L140.43 126.458L141.089 127.816L88.2181 147.325L20.1426 106.555Z" fill="#333333"/>
</g>
<g style="mix-blend-mode:color-dodge" opacity="0.47">
<path d="M144.525 120.68C147.357 121.075 148.154 123.05 146.34 125.075C144.525 127.125 140.758 128.458 137.954 128.063C135.122 127.668 134.325 125.693 136.139 123.668C137.954 121.618 141.721 120.285 144.525 120.68Z" fill="#333333"/>
</g>
<g style="mix-blend-mode:color-dodge" opacity="0.05">
<path d="M141.886 130.31C145.158 129.1 147.137 126.754 146.367 125.075C145.57 123.371 142.298 122.976 139.026 124.186C135.755 125.396 133.775 127.742 134.545 129.421C135.342 131.125 138.614 131.52 141.886 130.31Z" fill="#333333"/>
</g>
<g style="mix-blend-mode:color-dodge" opacity="0.06">
<path d="M21.1035 104.406L86.6221 143.67L84.3951 145.053L29.1043 111.913L61.4924 162.956L83.3228 148.88L84.89 149.794L60.0353 165.796L21.1035 104.406Z" fill="#333333"/>
</g>
<g style="mix-blend-mode:color-dodge" opacity="0.39">
<path d="M90.3077 141.102C92.2048 142.238 91.5449 144.583 88.768 146.312C86.0186 148.041 82.2244 148.51 80.3273 147.374C78.4302 146.238 79.0901 143.892 81.867 142.163C84.6164 140.435 88.4106 139.966 90.3077 141.102Z" fill="#333333"/>
</g>
<g style="mix-blend-mode:color-dodge" opacity="0.69">
<path d="M87.4203 151.523C90.1422 149.769 90.7471 147.448 88.795 146.337C86.8429 145.226 83.0487 145.744 80.3268 147.497C77.6049 149.251 77 151.572 78.9521 152.683C80.9042 153.794 84.6984 153.276 87.4203 151.523Z" fill="#333333"/>
</g>
<g style="mix-blend-mode:color-dodge" opacity="0.24">
<path d="M483.254 -10.6437L553.666 -13.0143L552.787 -11.3351L487.928 -9.16201L501.922 7.77815L552.759 -10.9647L553.392 -9.6065L500.3 9.97593L483.254 -10.6437Z" fill="#333333"/>
</g>
<g style="mix-blend-mode:color-dodge" opacity="0.12">
<path d="M486.359 -11.0881L500.216 5.72855L497.714 6.86448L484.847 -8.74219L457.573 3.77772L496.752 7.58061L495.432 9.23511L451.387 4.96303L486.359 -11.0881Z" fill="#333333"/>
</g>
<g style="mix-blend-mode:color-dodge" opacity="0.58">
<path d="M504.507 3.58022C505.744 5.08656 504.232 7.4572 501.125 8.88945C498.018 10.3217 494.472 10.2476 493.234 8.74129C491.997 7.23494 493.509 4.86432 496.616 3.43206C499.723 1.9998 503.27 2.07388 504.507 3.58022Z" fill="#333333"/>
</g>
<g style="mix-blend-mode:color-dodge" opacity="0.32">
<path d="M492.822 12.0997C495.736 12.3713 499.448 10.9391 501.098 8.88944C502.747 6.83983 501.73 4.93838 498.815 4.64205C495.901 4.34572 492.189 5.80268 490.54 7.85229C488.89 9.9019 489.907 11.8033 492.822 12.0997Z" fill="#333333"/>
</g>
<g style="mix-blend-mode:color-dodge" opacity="0.03">
<path d="M454.247 3.45679L496.753 7.58071L495.433 9.23521L454.687 5.28416L413.418 38.4483L495.186 10.1489L495.736 11.5318L405.197 42.8686L454.247 3.45679Z" fill="#333333"/>
</g>
<g style="mix-blend-mode:color-dodge" opacity="0.28">
<path d="M498.843 4.64205C501.757 4.91369 502.774 6.81514 501.125 8.88944C499.475 10.9391 495.763 12.396 492.849 12.0997C489.935 11.828 488.917 9.92659 490.567 7.85229C492.217 5.80268 495.928 4.34572 498.843 4.64205Z" fill="#333333"/>
</g>
<g style="mix-blend-mode:color-dodge" opacity="0.07">
<path d="M496.367 14.0999C499.667 12.964 501.784 10.6427 501.124 8.88943C500.464 7.13615 497.247 6.66696 493.975 7.80289C490.704 8.93882 488.559 11.2601 489.219 13.0133C489.879 14.7419 493.096 15.2358 496.367 14.0999Z" fill="#333333"/>
</g>
<g style="mix-blend-mode:color-dodge" opacity="0.3">
<path d="M333.795 -21.6819L456.529 3.82714L414.353 37.7074L412.456 37.0654L452.432 4.93837L341.988 -18.0518L407.782 37.7321L405.417 38.9915L333.795 -21.6819Z" fill="#333333"/>
</g>
<g style="mix-blend-mode:color-dodge" opacity="0.6">
<path d="M417.9 38.6952C415.536 40.5966 411.687 41.4856 409.322 40.6707C406.958 39.8558 406.958 37.6334 409.322 35.7319C411.687 33.8305 415.536 32.9415 417.9 33.7564C420.265 34.5713 420.265 36.7938 417.9 38.6952Z" fill="#333333"/>
</g>
<g style="mix-blend-mode:color-dodge" opacity="0.48">
<path d="M297.586 -13.3352L338.745 -20.7928L339.075 -20.4965L407.783 37.7322L406.106 38.6212L404.648 39.6089L297.559 -13.3352H297.586ZM337.068 -18.9408L303.58 -12.866L401.157 35.3862L337.068 -18.9408Z" fill="#333333"/>
</g>
<g style="mix-blend-mode:color-dodge" opacity="0.1">
<path d="M411.824 35.3615C413.391 36.695 412.291 39.0656 409.322 40.6707C406.352 42.2511 402.696 42.4487 401.101 41.1152C399.534 39.7817 400.634 37.4111 403.603 35.806C406.572 34.2256 410.229 34.028 411.824 35.3615Z" fill="#333333"/>
</g>
<g style="mix-blend-mode:color-dodge" opacity="0.22">
<path d="M400.77 42.0536C402.86 43.0907 406.681 42.4487 409.293 40.646C411.933 38.8433 412.373 36.5468 410.283 35.5096C408.194 34.4725 404.372 35.1145 401.76 36.9172C399.121 38.7199 398.708 41.0164 400.77 42.0536Z" fill="#333333"/>
</g>
<g style="mix-blend-mode:color-dodge" opacity="0.04">
<path d="M300.444 -14.3971L406.764 38.1767L404.674 39.6089L300.691 -11.8042L203.445 98.5537L403.437 41.5597L403.712 43.0414L198.221 101.591L300.444 -14.3971Z" fill="#333333"/>
</g>
<g style="mix-blend-mode:color-dodge" opacity="0.24">
<path d="M410.283 35.5344C412.373 36.5716 411.933 38.8681 409.293 40.6708C406.654 42.4735 402.86 43.0908 400.77 42.0784C398.68 41.0412 399.12 38.7447 401.76 36.942C404.399 35.1393 408.221 34.522 410.283 35.5344Z" fill="#333333"/>
</g>
<g style="mix-blend-mode:color-dodge" opacity="0.08">
<path d="M403.851 45.733C407.177 44.7699 409.624 42.5227 409.322 40.6707C408.992 38.8186 406.023 38.1025 402.696 39.0409C399.369 40.004 396.922 42.2511 397.224 44.1032C397.554 45.9552 400.524 46.6714 403.851 45.733Z" fill="#333333"/>
</g>
<g style="mix-blend-mode:color-dodge" opacity="0.44">
<path d="M1350.25 279.314L1347.81 278.747L1352.87 249.83L1355.64 255.238L1354.38 255.756L1352.29 267.758L1353.72 264.325L1356.08 265.115L1350.25 279.314Z" fill="#3B3B3B"/>
</g>
<g style="mix-blend-mode:color-dodge" opacity="0.06">
<path d="M1359.57 253.336C1360.89 255.905 1359.66 258.967 1356.77 260.152C1353.91 261.337 1350.5 260.226 1349.18 257.633C1347.86 255.065 1349.1 252.003 1351.99 250.818C1354.85 249.632 1358.25 250.743 1359.57 253.336Z" fill="#3B3B3B"/>
</g>
<g style="mix-blend-mode:color-dodge" opacity="0.31">
<path d="M1360.15 266.721C1361.25 264.054 1359.71 261.115 1356.77 260.127C1353.8 259.14 1350.53 260.498 1349.43 263.165C1348.33 265.832 1349.87 268.77 1352.81 269.758C1355.78 270.746 1359.05 269.363 1360.15 266.721Z" fill="#3B3B3B"/>
</g>
<g style="mix-blend-mode:color-dodge" opacity="0.33">
<path d="M1163.02 572.557L988.789 443.209L1051.42 387.401L1053.21 389.03L992.556 443.061L1155.29 563.889L1057.5 389.648L1059.75 388.635L1163.02 572.557Z" fill="#3B3B3B"/>
</g>
<g style="mix-blend-mode:color-dodge" opacity="0.56">
<path d="M1053.65 391.673C1052.22 389.154 1053.37 386.067 1056.18 384.783C1058.98 383.499 1062.45 384.536 1063.85 387.055C1065.28 389.574 1064.12 392.661 1061.32 393.945C1058.51 395.229 1055.05 394.192 1053.65 391.673Z" fill="#3B3B3B"/>
</g>
<g style="mix-blend-mode:color-dodge" opacity="0.29">
<path d="M1056.15 392.043C1058.4 390.043 1058.4 386.808 1056.18 384.783C1053.95 382.758 1050.35 382.758 1048.09 384.758C1045.87 386.759 1045.84 389.993 1048.07 392.018C1050.29 394.019 1053.9 394.043 1056.15 392.043Z" fill="#3B3B3B"/>
</g>
<g style="mix-blend-mode:color-dodge" opacity="0.23">
<path d="M1158.78 570.063L1158.04 568.73L1057.5 389.648L1059.75 388.635L1159.55 566.384L1255.01 488.819L1060.25 388.191L1061.51 386.215L1259.3 488.4L1258.01 489.437L1158.78 570.063Z" fill="#3B3B3B"/>
</g>
<g style="mix-blend-mode:color-dodge" opacity="0.59">
<path d="M1058.29 391.796C1055.57 390.389 1054.61 387.252 1056.18 384.783C1057.74 382.314 1061.24 381.474 1063.99 382.882C1066.71 384.289 1067.67 387.425 1066.1 389.895C1064.53 392.339 1061.04 393.204 1058.29 391.796Z" fill="#3B3B3B"/>
</g>
<g style="mix-blend-mode:color-dodge" opacity="0.06">
<path d="M1063.85 387.055C1062.42 384.536 1058.98 383.499 1056.18 384.783C1053.37 386.067 1052.22 389.154 1053.65 391.673C1055.08 394.192 1058.51 395.229 1061.32 393.945C1064.12 392.661 1065.28 389.574 1063.85 387.055Z" fill="#3B3B3B"/>
</g>
<g style="mix-blend-mode:color-dodge" opacity="0.54">
<path d="M1210.69 562.186L1155.16 569.94L1261.48 483.535L1219.49 556.506L1217.24 555.444L1252.82 493.66L1163.16 566.507L1210.31 559.938L1210.69 562.186Z" fill="#3B3B3B"/>
</g>
<g style="mix-blend-mode:color-dodge" opacity="0.69">
<path d="M1223.56 558.111C1222.1 560.63 1218.67 561.618 1215.86 560.309C1213.06 559 1211.96 555.913 1213.42 553.394C1214.87 550.876 1218.31 549.888 1221.11 551.197C1223.92 552.505 1225.02 555.592 1223.56 558.111Z" fill="#3B3B3B"/>
</g>
<g style="mix-blend-mode:color-dodge" opacity="0.41">
<path d="M1211.11 566.161C1214.21 565.717 1216.36 563.099 1215.86 560.309C1215.37 557.518 1212.45 555.592 1209.35 556.037C1206.24 556.481 1204.1 559.099 1204.59 561.889C1205.09 564.68 1208 566.606 1211.11 566.161Z" fill="#3B3B3B"/>
</g>
<g style="mix-blend-mode:color-dodge" opacity="0.5">
<path d="M529.828 665.777L509.015 660.888L508.383 663.086L519.82 665.777H529.828Z" fill="#3B3B3B"/>
</g>
<g style="mix-blend-mode:color-dodge" opacity="0.65">
<path d="M508.383 665.777C508.355 663.259 506.293 661.085 503.461 660.74C500.327 660.369 497.468 662.32 497.028 665.135C497 665.357 497.028 665.555 497.028 665.777H508.41H508.383Z" fill="#3B3B3B"/>
</g>
<g style="mix-blend-mode:color-dodge" opacity="0.13">
<path d="M505.082 665.777H512.863C513.633 665.135 514.21 664.32 514.485 663.357C515.283 660.616 513.468 657.801 510.416 657.085C507.364 656.369 504.23 657.999 503.433 660.74C502.883 662.616 503.598 664.518 505.082 665.777Z" fill="#3B3B3B"/>
</g>
<g style="mix-blend-mode:color-dodge" opacity="0.26">
<path d="M606.509 665.777L558.89 641.404L557.652 643.38L601.396 665.777H606.509Z" fill="#3B3B3B"/>
</g>
<g style="mix-blend-mode:color-dodge" opacity="0.26">
<path d="M529.829 665.777L507.201 660.468L549.157 643.059L548.085 640.984L499.723 661.061L519.848 665.777H529.829Z" fill="#3B3B3B"/>
</g>
<g style="mix-blend-mode:color-dodge" opacity="0.6">
<path d="M555.701 646.985C552.951 645.577 552.016 642.441 553.556 639.972C555.123 637.502 558.615 636.663 561.364 638.046C564.114 639.453 565.049 642.59 563.509 645.034C561.942 647.504 558.45 648.368 555.701 646.96V646.985Z" fill="#3B3B3B"/>
</g>
<g style="mix-blend-mode:color-dodge" opacity="0.67">
<path d="M550.75 646.787C553.61 645.602 554.874 642.54 553.555 639.972C552.235 637.404 548.826 636.268 545.966 637.453C543.107 638.638 541.842 641.701 543.162 644.269C544.482 646.837 547.891 647.973 550.75 646.787Z" fill="#3B3B3B"/>
</g>
<g style="mix-blend-mode:color-dodge" opacity="0.34">
<path d="M885.631 665.777H890.607L1033.88 590.016L804.908 461.582L803.561 463.508L1028.99 589.966L885.631 665.777Z" fill="#3B3B3B"/>
</g>
<g style="mix-blend-mode:color-dodge" opacity="0.34">
<path d="M769.963 665.777L800.152 464.94L797.65 464.644L767.406 665.777H769.963Z" fill="#3B3B3B"/>
</g>
<g style="mix-blend-mode:color-dodge" opacity="0.46">
<path d="M801.442 467.039C798.775 465.533 797.95 462.372 799.628 459.977C801.305 457.581 804.824 456.841 807.491 458.347C810.158 459.853 810.983 463.014 809.306 465.409C807.628 467.805 804.109 468.546 801.442 467.039Z" fill="#3B3B3B"/>
</g>
<g style="mix-blend-mode:color-dodge" opacity="0.2">
<path d="M804.522 465.73C804.935 462.915 802.763 460.347 799.628 459.952C796.494 459.581 793.635 461.532 793.195 464.347C792.782 467.163 794.954 469.731 798.089 470.126C801.223 470.496 804.083 468.545 804.522 465.73Z" fill="#3B3B3B"/>
</g>
<g style="mix-blend-mode:color-dodge" opacity="0.61">
<path d="M890.607 665.777L1029.92 592.115L1021.89 665.777H1024.42L1032.94 587.867L885.631 665.777H890.607Z" fill="#3B3B3B"/>
</g>
<g style="mix-blend-mode:color-dodge" opacity="0.02">
<path d="M1033.41 592.46L1030.77 590.954L795.807 459.162L985.159 442.493L985.379 444.74L803.45 460.767L1029.45 587.546L990.74 448.148L993.215 447.58L1033.41 592.46Z" fill="#3B3B3B"/>
</g>
<g style="mix-blend-mode:color-dodge" opacity="0.1">
<path d="M986.507 449.358C985.737 446.617 987.607 443.827 990.659 443.135C993.711 442.444 996.818 444.123 997.587 446.864C998.357 449.605 996.488 452.396 993.436 453.087C990.384 453.778 987.277 452.099 986.507 449.358Z" fill="#3B3B3B"/>
</g>
<g style="mix-blend-mode:color-dodge" opacity="0.19">
<path d="M985.543 448.741C988.678 448.469 990.987 445.95 990.685 443.135C990.382 440.32 987.578 438.246 984.443 438.517C981.309 438.789 979 441.308 979.302 444.123C979.604 446.938 982.409 449.012 985.543 448.741Z" fill="#3B3B3B"/>
</g>
<g style="mix-blend-mode:color-dodge" opacity="0.43">
<path d="M1162.06 568.878L1030.5 591.325L990.74 448.148L993.215 447.58L1032.37 588.682L1156.28 567.544L994.04 447.111L995.662 445.358L1162.06 568.878Z" fill="#3B3B3B"/>
</g>
<g style="mix-blend-mode:color-dodge" opacity="0.35">
<path d="M991.427 450.371C989.008 448.568 988.65 445.333 990.657 443.135C992.664 440.962 996.266 440.641 998.713 442.444C1001.13 444.246 1001.49 447.481 999.483 449.679C997.476 451.852 993.874 452.173 991.427 450.371Z" fill="#3B3B3B"/>
</g>
<g style="mix-blend-mode:color-dodge" opacity="0.52">
<path d="M997.587 446.864C996.818 444.123 993.711 442.444 990.659 443.135C987.607 443.827 985.737 446.617 986.507 449.358C987.277 452.099 990.384 453.778 993.436 453.087C996.488 452.396 998.357 449.605 997.587 446.864Z" fill="#3B3B3B"/>
</g>
<g style="mix-blend-mode:color-dodge" opacity="0.28">
<path d="M506.32 665.777C506.568 663.802 505.496 661.777 503.433 660.74C500.684 659.357 497.192 660.221 495.653 662.691C495.048 663.654 494.828 664.74 494.965 665.777H506.32Z" fill="#3B3B3B"/>
</g>
<g style="mix-blend-mode:color-dodge" opacity="0.68">
<path d="M508.383 665.777C508.355 663.259 506.293 661.085 503.461 660.74C500.327 660.369 497.468 662.32 497.028 665.135C497 665.357 497.028 665.555 497.028 665.777H508.41H508.383Z" fill="#3B3B3B"/>
</g>
<g style="mix-blend-mode:color-dodge" opacity="0.03">
<path d="M669.8 665.777L663.119 584.435L660.59 584.583L667.271 665.777H669.8Z" fill="#3B3B3B"/>
</g>
<g style="mix-blend-mode:color-dodge" opacity="0.03">
<path d="M658.226 665.777L633.756 607.598L658.639 583.966L656.796 582.41L630.814 607.079L655.504 665.777H658.226Z" fill="#3B3B3B"/>
</g>
<g style="mix-blend-mode:color-dodge" opacity="0.14">
<path d="M656.163 585.151C655.943 582.336 658.28 579.866 661.442 579.644C664.604 579.447 667.325 581.57 667.573 584.386C667.793 587.201 665.456 589.67 662.294 589.892C659.16 590.09 656.41 587.966 656.163 585.151Z" fill="#3B3B3B"/>
</g>
<g style="mix-blend-mode:color-dodge" opacity="0.63">
<path d="M661.69 586.904C663.862 584.855 663.752 581.595 661.47 579.644C659.188 577.693 655.559 577.792 653.387 579.842C651.215 581.891 651.325 585.151 653.607 587.102C655.889 589.053 659.518 588.954 661.69 586.904Z" fill="#3B3B3B"/>
</g>
<g style="mix-blend-mode:color-dodge" opacity="0.06">
<path d="M669.8 665.777L663.147 584.657L713.929 665.777H716.843L665.209 583.348L663.064 584.435L660.59 584.583L667.271 665.777H669.8Z" fill="#3B3B3B"/>
</g>
<g style="mix-blend-mode:color-dodge" opacity="0.63">
<path d="M656.163 585.151C655.943 582.336 658.28 579.866 661.442 579.644C664.604 579.447 667.325 581.57 667.573 584.386C667.793 587.201 665.456 589.67 662.294 589.892C659.16 590.09 656.41 587.966 656.163 585.151Z" fill="#3B3B3B"/>
</g>
<g style="mix-blend-mode:color-dodge" opacity="0.24">
<path d="M669.223 581.595C667.684 579.126 664.192 578.237 661.443 579.644C658.693 581.027 657.703 584.163 659.271 586.633C660.838 589.102 664.302 589.991 667.051 588.583C669.801 587.201 670.791 584.064 669.223 581.595Z" fill="#3B3B3B"/>
</g>
<g style="mix-blend-mode:color-dodge" opacity="0.13">
<path d="M716.843 665.777L665.209 583.348L663.01 584.46L713.956 665.777H716.843Z" fill="#3B3B3B"/>
</g>
<g style="mix-blend-mode:color-dodge" opacity="0.13">
<path d="M797.896 463.063L767.405 665.777H769.962L801.36 456.89L664.494 575.446L666.254 577.076L797.896 463.063Z" fill="#3B3B3B"/>
</g>
<g style="mix-blend-mode:color-dodge" opacity="0.44">
<path d="M659.27 586.633C657.73 584.163 658.693 581.027 661.442 579.644C664.192 578.261 667.683 579.126 669.223 581.595C670.763 584.065 669.8 587.201 667.051 588.584C664.301 589.966 660.81 589.102 659.27 586.633Z" fill="#3B3B3B"/>
</g>
<g style="mix-blend-mode:color-dodge" opacity="0.17">
<path d="M661.608 572.384C659.326 574.36 659.271 577.595 661.47 579.644C663.67 581.694 667.271 581.743 669.553 579.768C671.835 577.792 671.89 574.557 669.691 572.508C667.491 570.458 663.89 570.409 661.608 572.384Z" fill="#3B3B3B"/>
</g>
<g style="mix-blend-mode:color-dodge" opacity="0.43">
<path d="M606.482 626.958L639.997 665.777H643.214L607.417 624.316L558.395 637.503L559.109 639.676L606.482 626.958Z" fill="#3B3B3B"/>
</g>
<g style="mix-blend-mode:color-dodge" opacity="0.43">
<path d="M606.509 665.777L558.89 641.404L557.652 643.38L601.396 665.777H606.509Z" fill="#3B3B3B"/>
</g>
<g style="mix-blend-mode:color-dodge" opacity="0.47">
<path d="M555.701 646.985C552.951 645.577 552.016 642.441 553.556 639.972C555.123 637.502 558.615 636.663 561.364 638.046C564.114 639.453 565.049 642.59 563.509 645.034C561.942 647.504 558.45 648.368 555.701 646.96V646.985Z" fill="#3B3B3B"/>
</g>
<g style="mix-blend-mode:color-dodge" opacity="0.05">
<path d="M557.377 633.601C554.353 634.416 552.648 637.28 553.528 639.997C554.408 642.713 557.625 644.244 560.649 643.454C563.674 642.639 565.378 639.774 564.498 637.058C563.591 634.342 560.402 632.811 557.377 633.601Z" fill="#3B3B3B"/>
</g>
<g style="mix-blend-mode:color-dodge" opacity="0.06">
<path d="M631.722 609.203L655.505 665.777H658.227L632.849 605.474L610.387 621.698L611.981 623.476L631.722 609.203Z" fill="#3B3B3B"/>
</g>
<g style="mix-blend-mode:color-dodge" opacity="0.06">
<path d="M643.215 665.777L611.294 628.786L609.287 630.193L639.998 665.777H643.215Z" fill="#3B3B3B"/>
</g>
<g style="mix-blend-mode:color-dodge" opacity="0.39">
<path d="M605.932 632.835C604.008 630.588 604.448 627.378 606.95 625.625C609.452 623.871 613.026 624.291 614.978 626.538C616.903 628.785 616.463 631.996 613.961 633.749C611.459 635.478 607.885 635.082 605.932 632.835Z" fill="#3B3B3B"/>
</g>
<g style="mix-blend-mode:color-dodge" opacity="0.69">
<path d="M607.828 618.414C605.381 620.192 604.969 623.427 606.949 625.625C608.928 627.822 612.53 628.193 614.977 626.415C617.424 624.637 617.836 621.402 615.857 619.204C613.877 617.006 610.275 616.636 607.828 618.414Z" fill="#3B3B3B"/>
</g>
<g style="mix-blend-mode:color-dodge" opacity="0.03">
<path d="M1349.54 283.611L1323.78 216.666L1325.62 216.098L1327.21 215.159L1354.82 253.46L1349.57 283.611H1349.54ZM1327.79 220.172L1348.6 274.252L1352.15 253.978L1327.79 220.172Z" fill="#3B3B3B"/>
</g>
<g style="mix-blend-mode:color-dodge" opacity="0.51">
<path d="M1319.65 218.221C1318.61 215.554 1320.2 212.616 1323.2 211.702C1326.17 210.764 1329.44 212.196 1330.46 214.888C1331.47 217.579 1329.91 220.493 1326.91 221.407C1323.94 222.321 1320.67 220.913 1319.65 218.221Z" fill="#3B3B3B"/>
</g>
<g style="mix-blend-mode:color-dodge" opacity="0.49">
<path d="M1331.09 213.208C1329.39 210.838 1325.84 210.146 1323.2 211.677C1320.56 213.208 1319.79 216.394 1321.5 218.765C1323.2 221.135 1326.75 221.827 1329.39 220.296C1332.03 218.765 1332.8 215.579 1331.09 213.208Z" fill="#3B3B3B"/>
</g>
<g style="mix-blend-mode:color-dodge" opacity="0.11">
<path d="M5.54183 665.777C4.52454 664.592 2.98487 663.777 1.19775 663.728C-0.726844 663.678 -2.45898 664.493 -3.53125 665.777H5.54183Z" fill="#3B3B3B"/>
</g>
<g style="mix-blend-mode:color-dodge" opacity="0.66">
<path d="M1123.26 600.066L1122.68 600.017L1036.68 591.646L1036.9 589.794L1036.52 587.966L1163.18 566.384L1123.26 600.091V600.066ZM1040.04 589.67L1122.38 597.671L1155.13 570.038L1040.04 589.67Z" fill="#3B3B3B"/>
</g>
<g style="mix-blend-mode:color-dodge" opacity="0.11">
<path d="M1038.11 594.09C1035.01 594.609 1032.01 592.782 1031.43 590.016C1030.85 587.225 1032.89 584.534 1035.97 584.015C1039.08 583.497 1042.07 585.324 1042.65 588.09C1043.23 590.88 1041.19 593.572 1038.11 594.09Z" fill="#3B3B3B"/>
</g>
<g style="mix-blend-mode:color-dodge" opacity="0.66">
<path d="M1037.73 585.447C1034.59 585.151 1031.76 587.176 1031.43 589.991C1031.1 592.806 1033.36 595.35 1036.49 595.646C1039.63 595.942 1042.46 593.917 1042.79 591.102C1043.12 588.287 1040.86 585.744 1037.73 585.447Z" fill="#3B3B3B"/>
</g>
<g style="mix-blend-mode:color-dodge" opacity="0.22">
<path d="M1024.42 665.777L1031.51 600.931L1039.54 665.777H1042.1L1031.35 579.052L1021.89 665.777H1024.42Z" fill="#3B3B3B"/>
</g>
<g style="mix-blend-mode:color-dodge" opacity="0.36">
<path d="M1042.1 665.777L1034.48 604.289L1053.24 665.777H1055.88L1032.64 589.695L1030.17 590.114L1039.54 665.777H1042.1Z" fill="#3B3B3B"/>
</g>
<g style="mix-blend-mode:color-dodge" opacity="0.53">
<path d="M1428.01 481.757L1262.63 489.486L1262.49 487.214L1425.42 479.584L1423.8 328.283L1261.75 485.782L1259.91 484.251L1426.28 322.529L1428.01 481.757Z" fill="#3B3B3B"/>
</g>
<g style="mix-blend-mode:color-dodge" opacity="0.53">
<path d="M1263.15 493.462C1259.99 493.61 1257.32 491.437 1257.16 488.597C1256.99 485.757 1259.41 483.362 1262.57 483.214C1265.74 483.066 1268.4 485.239 1268.57 488.078C1268.73 490.918 1266.31 493.314 1263.15 493.462Z" fill="#3B3B3B"/>
</g>
<g style="mix-blend-mode:color-dodge" opacity="0.15">
<path d="M1256.83 481.337C1254.68 483.411 1254.82 486.671 1257.16 488.597C1259.47 490.523 1263.1 490.4 1265.24 488.301C1267.39 486.227 1267.25 482.967 1264.91 481.041C1262.6 479.115 1258.97 479.238 1256.83 481.337Z" fill="#3B3B3B"/>
</g>
<g style="mix-blend-mode:color-dodge" opacity="0.65">
<path d="M1261.75 485.782L1260.07 484.399L1257.96 483.658L1348.47 277.191L1426.96 325.221L1261.75 485.807V485.782ZM1349.65 280.648L1260.79 483.362L1423.11 325.591L1349.65 280.648Z" fill="#3B3B3B"/>
</g>
<g style="mix-blend-mode:color-dodge" opacity="0.55">
<path d="M1264.56 485.708C1263.4 488.35 1260.07 489.634 1257.13 488.597C1254.19 487.56 1252.76 484.572 1253.92 481.93C1255.07 479.287 1258.4 478.003 1261.34 479.041C1264.28 480.078 1265.71 483.066 1264.56 485.708Z" fill="#3B3B3B"/>
</g>
<g style="mix-blend-mode:color-dodge" opacity="0.14">
<path d="M1256.83 481.337C1254.68 483.411 1254.82 486.671 1257.16 488.597C1259.47 490.523 1263.1 490.4 1265.24 488.301C1267.39 486.227 1267.25 482.967 1264.91 481.041C1262.6 479.115 1258.97 479.238 1256.83 481.337Z" fill="#3B3B3B"/>
</g>
<g style="mix-blend-mode:color-dodge" opacity="0.58">
<path d="M1453 345.322V342.507L1423.75 323.147L1425.4 475.806L1427.93 475.781L1426.33 327.666L1453 345.322Z" fill="#3B3B3B"/>
</g>
<g style="mix-blend-mode:color-dodge" opacity="0.58">
<path d="M1453 468.521L1431.12 477.583L1432.19 479.658L1453 471.04V468.521Z" fill="#3B3B3B"/>
</g>
<g style="mix-blend-mode:color-dodge" opacity="0.53">
<path d="M1434.3 483.189C1431.44 484.374 1428.03 483.263 1426.72 480.67C1425.4 478.102 1426.63 475.04 1429.52 473.855C1432.38 472.669 1435.79 473.781 1437.11 476.374C1438.43 478.942 1437.19 482.004 1434.3 483.189Z" fill="#3B3B3B"/>
</g>
<g style="mix-blend-mode:color-dodge" opacity="0.7">
<path d="M1420.94 475.583C1420.97 478.423 1423.55 480.695 1426.72 480.67C1429.88 480.646 1432.41 478.324 1432.38 475.485C1432.35 472.645 1429.77 470.373 1426.61 470.398C1423.44 470.422 1420.91 472.743 1420.94 475.583Z" fill="#3B3B3B"/>
</g>
<g style="mix-blend-mode:color-dodge" opacity="0.15">
<path d="M1433.86 332.185L1352.84 282.599L1354.27 280.747L1416.21 318.628L1357.24 262.251L1352.12 274.746L1349.76 273.956L1356.28 258.028L1433.86 332.185Z" fill="#3B3B3B"/>
</g>
<g style="mix-blend-mode:color-dodge" opacity="0.13">
<path d="M1356.41 275.882C1355.31 278.549 1352.04 279.907 1349.07 278.919C1346.1 277.932 1344.59 274.993 1345.69 272.326C1346.79 269.659 1350.06 268.301 1353.03 269.289C1356 270.277 1357.51 273.215 1356.41 275.882Z" fill="#3B3B3B"/>
</g>
<g style="mix-blend-mode:color-dodge" opacity="0.52">
<path d="M1356.99 277.586C1354.38 275.981 1350.83 276.598 1349.04 278.944C1347.26 281.29 1347.94 284.476 1350.56 286.081C1353.17 287.686 1356.72 287.069 1358.5 284.723C1360.29 282.377 1359.6 279.191 1356.99 277.586Z" fill="#3B3B3B"/>
</g>
<g style="mix-blend-mode:color-dodge" opacity="0.17">
<path d="M1453 342.507L1428.25 326.135L1453 322.801V320.48L1421.82 324.678L1453 345.322V342.507Z" fill="#3B3B3B"/>
</g>
<g style="mix-blend-mode:color-dodge" opacity="0.04">
<path d="M474.619 665.777L501.069 662.221L498.841 665.777H501.756L505.825 659.283L457.49 665.777H474.619Z" fill="#3B3B3B"/>
</g>
<g style="mix-blend-mode:color-dodge" opacity="0.19">
<path d="M1259.55 491.141L1060.25 388.191L1061.51 386.215L1254.77 486.054L1188.18 323.566L1061.57 383.524L1060.38 381.499L1189.55 320.356L1190.05 321.566L1259.55 491.141Z" fill="#3B3B3B"/>
</g>
<g style="mix-blend-mode:color-dodge" opacity="0.53">
<path d="M1058.29 391.796C1055.57 390.389 1054.61 387.252 1056.18 384.783C1057.74 382.314 1061.24 381.474 1063.99 382.882C1066.71 384.289 1067.67 387.425 1066.1 389.895C1064.53 392.339 1061.04 393.204 1058.29 391.796Z" fill="#3B3B3B"/>
</g>
<g style="mix-blend-mode:color-dodge" opacity="0.65">
<path d="M1058.57 377.844C1055.76 379.177 1054.72 382.264 1056.18 384.783C1057.66 387.302 1061.1 388.24 1063.9 386.931C1066.71 385.598 1067.75 382.511 1066.29 379.992C1064.84 377.474 1061.37 376.535 1058.57 377.844Z" fill="#3B3B3B"/>
</g>
<g style="mix-blend-mode:color-dodge" opacity="0.35">
<path d="M1257.1 491.807L1189.55 326.925L1191.92 326.159L1257.19 485.411L1346.93 280.697L1194.42 321.665L1193.7 319.492L1351.19 277.166L1257.1 491.807Z" fill="#3B3B3B"/>
</g>
<g style="mix-blend-mode:color-dodge" opacity="0.16">
<path d="M1185.45 328.555C1184.35 325.888 1185.89 322.949 1188.84 321.961C1191.8 320.974 1195.08 322.356 1196.18 324.999C1197.28 327.641 1195.74 330.604 1192.79 331.592C1189.82 332.58 1186.55 331.197 1185.45 328.555Z" fill="#3B3B3B"/>
</g>
<g style="mix-blend-mode:color-dodge" opacity="0.17">
<path d="M1192.69 315.59C1189.66 316.405 1187.96 319.27 1188.84 321.986C1189.74 324.702 1192.93 326.233 1195.96 325.443C1198.98 324.628 1200.69 321.764 1199.81 319.047C1198.9 316.331 1195.71 314.8 1192.69 315.59Z" fill="#3B3B3B"/>
</g>
<g style="mix-blend-mode:color-dodge" opacity="0.62">
<path d="M1453 475.336L1436.12 478.028L1453 471.04V468.521L1431.12 477.583L1431.94 479.189L1432.3 480.942L1453 477.658V475.336Z" fill="#3B3B3B"/>
</g>
<g style="mix-blend-mode:color-dodge" opacity="0.27">
<path d="M1431.33 474.719C1428.23 475.213 1426.17 477.88 1426.72 480.67C1427.27 483.461 1430.23 485.313 1433.34 484.819C1436.45 484.325 1438.51 481.658 1437.96 478.868C1437.41 476.077 1434.44 474.225 1431.33 474.719Z" fill="#3B3B3B"/>
</g>
<g style="mix-blend-mode:color-dodge" opacity="0.35">
<path d="M1362.82 594.559L1361.94 593.695L1259.85 492.968L1261.72 491.437L1362.9 591.275L1425.97 535.121L1262 491.091L1262.71 488.918L1430.78 534.034L1362.82 594.559Z" fill="#3B3B3B"/>
</g>
<g style="mix-blend-mode:color-dodge" opacity="0.58">
<path d="M1256.77 495.857C1254.66 493.758 1254.82 490.523 1257.16 488.597C1259.5 486.696 1263.1 486.844 1265.24 488.943C1267.36 491.042 1267.19 494.277 1264.86 496.203C1262.52 498.104 1258.92 497.956 1256.77 495.857Z" fill="#3B3B3B"/>
</g>
<g style="mix-blend-mode:color-dodge" opacity="0.1">
<path d="M1264.25 485.165C1261.23 484.35 1258.04 485.905 1257.13 488.622C1256.22 491.338 1257.96 494.203 1260.98 495.017C1264.01 495.832 1267.19 494.277 1268.1 491.56C1269.01 488.844 1267.28 485.979 1264.25 485.165Z" fill="#3B3B3B"/>
</g>
<g style="mix-blend-mode:color-dodge" opacity="0.1">
<path d="M1429.69 536.109L1428.01 535.664L1261.97 491.091L1262.6 489.19L1262.49 487.214L1427.93 479.485L1429.69 536.133V536.109ZM1264.53 489.387L1427.05 533.022L1425.48 481.856L1264.53 489.387Z" fill="#3B3B3B"/>
</g>
<g style="mix-blend-mode:color-dodge" opacity="0.47">
<path d="M1263.15 493.462C1259.99 493.61 1257.32 491.437 1257.16 488.597C1256.99 485.757 1259.41 483.362 1262.57 483.214C1265.74 483.066 1268.4 485.239 1268.57 488.078C1268.73 490.918 1266.31 493.314 1263.15 493.462Z" fill="#3B3B3B"/>
</g>
<g style="mix-blend-mode:color-dodge" opacity="0.05">
<path d="M1264.25 485.165C1261.23 484.35 1258.04 485.905 1257.13 488.622C1256.22 491.338 1257.96 494.203 1260.98 495.017C1264.01 495.832 1267.19 494.277 1268.1 491.56C1269.01 488.844 1267.28 485.979 1264.25 485.165Z" fill="#3B3B3B"/>
</g>
<g style="mix-blend-mode:color-dodge" opacity="0.26">
<path d="M1417.48 592.708L1359.68 594.14L1429.93 531.59L1424.6 586.682L1422.1 586.485L1426.82 537.566L1366.03 591.72L1417.42 590.436L1417.48 592.708Z" fill="#3B3B3B"/>
</g>
<g style="mix-blend-mode:color-dodge" opacity="0.24">
<path d="M1429.05 586.781C1428.78 589.596 1426 591.695 1422.87 591.448C1419.73 591.201 1417.4 588.707 1417.67 585.892C1417.95 583.077 1420.72 580.978 1423.86 581.225C1426.99 581.472 1429.33 583.966 1429.05 586.781Z" fill="#3B3B3B"/>
</g>
<g style="mix-blend-mode:color-dodge" opacity="0.22">
<path d="M1417.31 596.708C1420.47 596.634 1422.95 594.263 1422.87 591.423C1422.78 588.584 1420.14 586.361 1416.98 586.435C1413.82 586.509 1411.35 588.88 1411.43 591.72C1411.51 594.56 1414.15 596.782 1417.28 596.708H1417.31Z" fill="#3B3B3B"/>
</g>
<g style="mix-blend-mode:color-dodge" opacity="0.36">
<path d="M1453 591.843L1424.24 590.361L1429.47 536.405L1453 548.11V545.517L1429 533.565L1427.29 532.725L1421.49 592.51L1453 594.14V591.843Z" fill="#3B3B3B"/>
</g>
<g style="mix-blend-mode:color-dodge" opacity="0.08">
<path d="M1453 520.502L1429.57 532.627L1428.14 485.51L1425.59 485.584L1427.18 536.504L1453 523.119V520.502Z" fill="#3B3B3B"/>
</g>
<g style="mix-blend-mode:color-dodge" opacity="0.08">
<path d="M1453 477.658V475.336L1431.83 478.719L1432.3 480.942L1453 477.658Z" fill="#3B3B3B"/>
</g>
<g style="mix-blend-mode:color-dodge" opacity="0.38">
<path d="M1433.34 484.844C1430.23 485.338 1427.27 483.485 1426.72 480.695C1426.17 477.905 1428.23 475.238 1431.33 474.744C1434.44 474.25 1437.41 476.102 1437.96 478.892C1438.51 481.683 1436.45 484.35 1433.34 484.844Z" fill="#3B3B3B"/>
</g>
<g style="mix-blend-mode:color-dodge" opacity="0.62">
<path d="M1432.6 485.658C1432.52 482.819 1429.88 480.596 1426.74 480.67C1423.58 480.744 1421.11 483.115 1421.19 485.955C1421.27 488.795 1423.91 491.017 1427.07 490.943C1430.24 490.869 1432.71 488.498 1432.63 485.658H1432.6Z" fill="#3B3B3B"/>
</g>
<g style="mix-blend-mode:color-dodge" opacity="0.68">
<path d="M1453 545.517L1430.95 534.553L1453 523.119V520.502L1425.81 534.602L1453 548.11V545.517Z" fill="#3B3B3B"/>
</g>
<g style="mix-blend-mode:color-dodge" opacity="0.04">
<path d="M1297.82 599.647L1220.1 563.544L1221.28 561.544L1293.56 595.103L1256.86 491.56L1219.49 556.506L1217.24 555.444L1257.43 485.634L1297.82 599.647Z" fill="#3B3B3B"/>
</g>
<g style="mix-blend-mode:color-dodge" opacity="0.46">
<path d="M1223.56 558.111C1222.1 560.63 1218.67 561.618 1215.86 560.309C1213.06 559 1211.96 555.913 1213.42 553.394C1214.87 550.876 1218.31 549.888 1221.11 551.197C1223.92 552.505 1225.02 555.592 1223.56 558.111Z" fill="#3B3B3B"/>
</g>
<g style="mix-blend-mode:color-dodge" opacity="0.6">
<path d="M1223.56 558.111C1220.76 556.802 1217.32 557.79 1215.86 560.309C1214.41 562.828 1215.51 565.914 1218.31 567.223C1221.11 568.532 1224.55 567.544 1226.01 565.025C1227.47 562.507 1226.37 559.42 1223.56 558.111Z" fill="#3B3B3B"/>
</g>
<g style="mix-blend-mode:color-dodge" opacity="0.23">
<path d="M1332.25 665.777L1297.6 598.387L1361.58 594.164L1361 665.777H1363.53L1364.14 592.93V591.695L1293.78 596.362L1329.47 665.777H1332.25Z" fill="#3B3B3B"/>
</g>
<g style="mix-blend-mode:color-dodge" opacity="0.19">
<path d="M1365.54 593.893L1294.77 598.585L1257.57 493.585L1259.91 492.919L1261.72 491.437L1365.54 593.893ZM1296.58 596.189L1360.15 591.967L1260.07 493.215L1296.56 596.189H1296.58Z" fill="#3B3B3B"/>
</g>
<g style="mix-blend-mode:color-dodge" opacity="0.69">
<path d="M1256.77 495.857C1254.66 493.758 1254.82 490.523 1257.16 488.597C1259.5 486.696 1263.1 486.844 1265.24 488.943C1267.36 491.042 1267.19 494.277 1264.86 496.203C1262.52 498.104 1258.92 497.956 1256.77 495.857Z" fill="#3B3B3B"/>
</g>
<g style="mix-blend-mode:color-dodge" opacity="0.26">
<path d="M1264.34 491.931C1263.37 489.239 1260.16 487.733 1257.16 488.597C1254.16 489.461 1252.49 492.351 1253.45 495.042C1254.41 497.734 1257.63 499.24 1260.62 498.376C1263.62 497.512 1265.3 494.622 1264.34 491.931Z" fill="#3B3B3B"/>
</g>
<g style="mix-blend-mode:color-dodge" opacity="0.59">
<path d="M1453 79.1935L1325.84 207.282L1327.74 208.813L1448.93 86.7252L1353.33 251.46L1327.19 215.159L1325.07 216.394L1353.58 255.979L1453 84.6262V79.1935Z" fill="#3B3B3B"/>
</g>
<g style="mix-blend-mode:color-dodge" opacity="0.7">
<path d="M1321.5 218.789C1319.79 216.419 1320.53 213.233 1323.2 211.702C1325.84 210.171 1329.39 210.838 1331.09 213.233C1332.8 215.604 1332.05 218.789 1329.39 220.32C1326.75 221.851 1323.2 221.185 1321.5 218.789Z" fill="#3B3B3B"/>
</g>
<g style="mix-blend-mode:color-dodge" opacity="0.4">
<path d="M1322.71 204.442C1320.62 206.566 1320.81 209.801 1323.17 211.677C1325.54 213.554 1329.14 213.381 1331.23 211.258C1333.32 209.134 1333.13 205.899 1330.76 204.022C1328.4 202.145 1324.8 202.318 1322.71 204.442Z" fill="#3B3B3B"/>
</g>
<g style="mix-blend-mode:color-dodge" opacity="0.48">
<path d="M1453 83.7867L1451.1 82.9224L1352.34 253.164L1352.07 253.657L1356.74 262.77L1453 84.9473V83.762V83.7867ZM1356.8 257.46L1354.87 253.731L1413.85 152.091L1356.8 257.46Z" fill="#3B3B3B"/>
</g>
<g style="mix-blend-mode:color-dodge" opacity="0.48">
<path d="M1453 83.8113L1451.24 83.0458L1355.26 260.349L1426.03 327.987L1453 104.209V83.8113ZM1424.08 322.826L1358.28 259.93L1452.7 85.5152L1424.08 322.801V322.826Z" fill="#3B3B3B"/>
</g>
<g style="mix-blend-mode:color-dodge" opacity="0.5">
<path d="M1453 320.504L1426.47 324.06L1453 104.209V83.8854L1452.89 83.8607L1423.61 326.752L1453 322.801V320.504Z" fill="#3B3B3B"/>
</g>
<g style="mix-blend-mode:color-dodge" opacity="0.06">
<path d="M1055.87 665.777L1033.63 592.93L1136.62 662.987L1134.92 665.777H1137.81L1139.87 662.345L1029.23 587.052L1053.23 665.777H1055.87Z" fill="#3B3B3B"/>
</g>
<g style="mix-blend-mode:color-dodge" opacity="0.62">
<path d="M1139.4 665.777L1139.68 657.9L1134.92 665.777H1139.4Z" fill="#3B3B3B"/>
</g>
<g style="mix-blend-mode:color-dodge" opacity="0.4">
<path d="M1140.2 665.432L1035.01 593.843L1036.52 592.041L1136.27 659.9L1121.78 599.918L1036.68 591.646L1036.96 589.398L1123.87 597.844L1124.06 598.634L1140.2 665.432Z" fill="#3B3B3B"/>
</g>
<g style="mix-blend-mode:color-dodge" opacity="0.21">
<path d="M1036.49 595.646C1033.36 595.35 1031.07 592.806 1031.43 589.991C1031.76 587.176 1034.59 585.126 1037.73 585.447C1040.86 585.744 1043.14 588.287 1042.79 591.102C1042.46 593.918 1039.62 595.967 1036.49 595.646Z" fill="#3B3B3B"/>
</g>
<g style="mix-blend-mode:color-dodge" opacity="0.42">
<path d="M1039.43 589.003C1036.93 587.299 1033.33 587.744 1031.43 589.991C1029.53 592.238 1030.03 595.473 1032.53 597.177C1035.06 598.881 1038.63 598.437 1040.53 596.189C1042.43 593.942 1041.93 590.707 1039.43 589.003Z" fill="#3B3B3B"/>
</g>
<g style="mix-blend-mode:color-dodge" opacity="0.49">
<path d="M1139.4 665.777L1139.46 664.197L1145.04 665.777H1153.48L1138.63 661.579L1137.04 661.135L1136.87 665.777H1139.4Z" fill="#3B3B3B"/>
</g>
<g style="mix-blend-mode:color-dodge" opacity="0.33">
<path d="M1138.85 665.777L1161.18 564.951L1125.9 594.708L1127.63 596.362L1157.14 571.47L1138.19 657.085L1125.21 603.4L1122.74 603.894L1137.7 665.777H1138.85Z" fill="#3B3B3B"/>
</g>
<g style="mix-blend-mode:color-dodge" opacity="0.02">
<path d="M1130.91 599.103C1128.6 601.054 1125 600.955 1122.82 598.881C1120.65 596.807 1120.79 593.572 1123.07 591.621C1125.38 589.67 1128.98 589.794 1131.15 591.843C1133.33 593.918 1133.19 597.152 1130.91 599.103Z" fill="#3B3B3B"/>
</g>
<g style="mix-blend-mode:color-dodge" opacity="0.08">
<path d="M1129.61 602.807C1128.95 600.041 1125.9 598.288 1122.82 598.881C1119.74 599.474 1117.79 602.215 1118.45 604.98C1119.11 607.746 1122.16 609.499 1125.24 608.907C1128.32 608.314 1130.27 605.573 1129.61 602.807Z" fill="#3B3B3B"/>
</g>
<g style="mix-blend-mode:color-dodge" opacity="0.16">
<path d="M1137.42 665.777L1218.56 558.778L1164.34 566.359L1164.72 568.606L1213.17 561.84L1140.69 657.406L1159.34 573.224L1156.86 572.779L1136.27 665.777H1137.42Z" fill="#3B3B3B"/>
</g>
<g style="mix-blend-mode:color-dodge" opacity="0.53">
<path d="M1165.68 572.508C1162.58 572.952 1159.64 571.026 1159.17 568.236C1158.67 565.445 1160.82 562.803 1163.93 562.383C1167.03 561.939 1169.97 563.865 1170.44 566.655C1170.94 569.446 1168.79 572.088 1165.68 572.508Z" fill="#3B3B3B"/>
</g>
<g style="mix-blend-mode:color-dodge" opacity="0.28">
<path d="M1163.65 574.261C1164.26 571.47 1162.25 568.779 1159.17 568.236C1156.06 567.692 1153.07 569.495 1152.46 572.261C1151.86 575.051 1153.86 577.743 1156.94 578.286C1160.05 578.829 1163.05 577.027 1163.65 574.261Z" fill="#3B3B3B"/>
</g>
<g style="mix-blend-mode:color-dodge" opacity="0.39">
<path d="M1134.62 665.432L1211.77 563.692L1213.86 564.976L1141.88 659.925L1292.82 597.325L1220.1 563.544L1221.28 561.544L1298.56 597.449L1134.62 665.432Z" fill="#3B3B3B"/>
</g>
<g style="mix-blend-mode:color-dodge" opacity="0.41">
<path d="M1218.31 567.223C1215.51 565.914 1214.41 562.828 1215.86 560.309C1217.32 557.79 1220.76 556.802 1223.56 558.111C1226.37 559.42 1227.47 562.507 1226.01 565.025C1224.55 567.544 1221.11 568.532 1218.31 567.223Z" fill="#3B3B3B"/>
</g>
<g style="mix-blend-mode:color-dodge" opacity="0.69">
<path d="M1217.38 567.445C1219.16 565.099 1218.48 561.914 1215.86 560.309C1213.25 558.704 1209.7 559.321 1207.92 561.667C1206.13 564.013 1206.82 567.198 1209.43 568.804C1212.04 570.409 1215.59 569.791 1217.38 567.445Z" fill="#3B3B3B"/>
</g>
<g style="mix-blend-mode:color-dodge" opacity="0.63">
<path d="M1153.48 665.777L1141.74 662.468L1295.07 598.906L1329.47 665.777H1332.24L1296.31 595.868L1134.73 662.864L1145.04 665.777H1153.48Z" fill="#3B3B3B"/>
</g>
<g style="mix-blend-mode:color-dodge" opacity="0.25">
<path d="M1093.73 524.527L1094.48 525.663L1095.96 526.453L1012.65 576.459L1058.21 536.924L1058.6 536.775L1093.71 524.527H1093.73ZM1028.98 564.729L1092.77 526.453L1059.89 537.936L1029.01 564.729H1028.98Z" fill="#333333"/>
</g>
<g style="mix-blend-mode:color-dodge" opacity="0.68">
<path d="M1091.07 524.107C1093.76 522.477 1097.66 522.082 1099.78 523.218C1101.9 524.354 1101.43 526.577 1098.74 528.182C1096.04 529.812 1092.14 530.207 1090.02 529.071C1087.9 527.935 1088.37 525.712 1091.07 524.107Z" fill="#333333"/>
</g>
<g style="mix-blend-mode:color-dodge" opacity="0.4">
<path d="M1095.79 528.182C1099.07 527.046 1100.83 524.823 1099.78 523.193C1098.71 521.588 1095.22 521.193 1091.95 522.329C1088.67 523.465 1086.91 525.688 1087.96 527.317C1089.03 528.923 1092.52 529.318 1095.79 528.182Z" fill="#333333"/>
</g>
<g style="mix-blend-mode:color-dodge" opacity="0.35">
<path d="M1285.89 471.015L1432.24 542.356L1430.12 543.69L1288.01 474.398L1274.01 556.111L1429.38 544.505L1428.91 546.085L1271.04 557.864L1285.89 471.015Z" fill="#333333"/>
</g>
<g style="mix-blend-mode:color-dodge" opacity="0.1">
<path d="M1435.73 539.911C1437.93 540.973 1437.58 543.196 1434.96 544.85C1432.33 546.505 1428.42 546.974 1426.22 545.912C1424.02 544.85 1424.38 542.628 1426.99 540.973C1429.63 539.319 1433.53 538.85 1435.73 539.911Z" fill="#333333"/>
</g>
<g style="mix-blend-mode:color-dodge" opacity="0.23">
<path d="M1427.79 548.851C1431.17 548.604 1434.39 546.801 1434.96 544.85C1435.54 542.899 1433.29 541.517 1429.9 541.764C1426.52 542.01 1423.31 543.813 1422.73 545.764C1422.15 547.715 1424.41 549.098 1427.79 548.851Z" fill="#333333"/>
</g>
<g style="mix-blend-mode:color-dodge" opacity="0.64">
<path d="M1096.18 523.416L1280.91 473.583L1281.41 474.991L1103.38 523.021L1271.37 555.864L1285.01 476.201L1287.76 475.88L1273.68 558.136L1271.76 557.765L1096.18 523.416Z" fill="#333333"/>
</g>
<g style="mix-blend-mode:color-dodge" opacity="0.1">
<path d="M1279.73 471.188C1283.11 470.274 1286.33 470.966 1286.96 472.719C1287.57 474.472 1285.34 476.621 1281.96 477.534C1278.58 478.448 1275.36 477.756 1274.73 476.003C1274.12 474.25 1276.35 472.101 1279.73 471.188Z" fill="#333333"/>
</g>
<g style="mix-blend-mode:color-dodge" opacity="0.07">
<path d="M1292.54 475.485C1292.87 473.558 1290.37 472.299 1286.96 472.694C1283.55 473.089 1280.5 474.991 1280.17 476.917C1279.84 478.843 1282.34 480.102 1285.75 479.707C1289.16 479.312 1292.21 477.411 1292.54 475.485Z" fill="#333333"/>
</g>
<g style="mix-blend-mode:color-dodge" opacity="0.25">
<path d="M1098.08 521.984L1100.55 522.453L1268.38 555.271L1266.86 556.802L1101.46 524.453L1124.06 632.514L1266.81 559.049L1268.27 560.087L1121.81 635.453L1098.08 521.984Z" fill="#333333"/>
</g>
<g style="mix-blend-mode:color-dodge" opacity="0.6">
<path d="M1270.58 562.037C1273.49 560.531 1274.37 558.284 1272.53 557C1270.71 555.716 1266.86 555.889 1263.98 557.37C1261.06 558.876 1260.18 561.124 1262.03 562.408C1263.84 563.692 1267.69 563.519 1270.58 562.037Z" fill="#333333"/>
</g>
<g style="mix-blend-mode:color-dodge" opacity="0.25">
<path d="M1094.28 525.54L1095.99 526.453L1022.69 570.433L1120.98 631.453L1099.07 526.651L1101.79 526.009L1124.91 636.54L1018.95 570.754L1019.97 570.137L1094.28 525.54Z" fill="#333333"/>
</g>
<g style="mix-blend-mode:color-dodge" opacity="0.16">
<path d="M1091.07 524.107C1093.76 522.477 1097.66 522.082 1099.78 523.218C1101.9 524.354 1101.43 526.577 1098.74 528.182C1096.04 529.812 1092.14 530.207 1090.02 529.071C1087.9 527.935 1088.37 525.712 1091.07 524.107Z" fill="#333333"/>
</g>
<g style="mix-blend-mode:color-dodge" opacity="0.57">
<path d="M1106.63 525.07C1106.24 523.268 1103.19 522.428 1099.78 523.218C1096.37 524.009 1093.93 526.107 1094.28 527.91C1094.67 529.713 1097.72 530.552 1101.16 529.762C1104.57 528.972 1107.01 526.873 1106.66 525.07H1106.63Z" fill="#333333"/>
</g>
<g style="mix-blend-mode:color-dodge" opacity="0.3">
<path d="M1187.65 665.777L1125 633.823L1270.82 558.778L1248.83 665.777H1251.5L1274.23 555.222L1122.19 633.477L1120.9 634.144L1182.93 665.777H1187.65Z" fill="#333333"/>
</g>
<g style="mix-blend-mode:color-dodge" opacity="0.39">
<path d="M1453 602.832L1392.95 613.599L1435.27 546.455L1453 558.432V555.642L1434.63 543.27L1388.91 615.821L1453 604.338V602.832Z" fill="#333333"/>
</g>
<g style="mix-blend-mode:color-dodge" opacity="0.04">
<path d="M1429.9 541.764C1433.29 541.517 1435.54 542.899 1434.96 544.85C1434.39 546.801 1431.17 548.604 1427.79 548.851C1424.41 549.098 1422.15 547.715 1422.73 545.764C1423.31 543.813 1426.52 542.01 1429.9 541.764Z" fill="#333333"/>
</g>
<g style="mix-blend-mode:color-dodge" opacity="0.18">
<path d="M1438.51 548.678C1439.75 546.702 1438.15 544.998 1434.96 544.875C1431.77 544.752 1428.17 546.208 1426.93 548.184C1425.7 550.16 1427.29 551.863 1430.48 551.987C1433.67 552.11 1437.27 550.653 1438.51 548.678Z" fill="#333333"/>
</g>
<g style="mix-blend-mode:color-dodge" opacity="0.4">
<path d="M1061.43 665.777H1064.48L1022.17 570.186L1021.95 569.668L826.27 599.325L826.188 600.832L1019.72 571.52L1061.43 665.777Z" fill="#333333"/>
</g>
<g style="mix-blend-mode:color-dodge" opacity="0.4">
<path d="M981.419 665.777L825.39 601.943L823.41 603.326L976.058 665.777H981.419Z" fill="#333333"/>
</g>
<g style="mix-blend-mode:color-dodge" opacity="0.64">
<path d="M820.111 605.845C817.747 604.882 817.857 602.709 820.331 600.98C822.805 599.251 826.765 598.659 829.102 599.622C831.466 600.585 831.356 602.758 828.882 604.487C826.407 606.215 822.448 606.808 820.111 605.845Z" fill="#333333"/>
</g>
<g style="mix-blend-mode:color-dodge" opacity="0.06">
<path d="M826.737 596.584C823.301 597.103 820.441 599.078 820.331 600.98C820.221 602.881 822.916 603.993 826.325 603.474C829.762 602.955 832.621 600.98 832.731 599.078C832.841 597.177 830.147 596.066 826.737 596.584Z" fill="#333333"/>
</g>
<g style="mix-blend-mode:color-dodge" opacity="0.29">
<path d="M981.419 665.777L825.39 601.943L823.41 603.326L976.058 665.777H981.419Z" fill="#333333"/>
</g>
<g style="mix-blend-mode:color-dodge" opacity="0.29">
<path d="M813.733 665.777L821.294 604.091L818.545 604.462L811.039 665.777H813.733Z" fill="#333333"/>
</g>
<g style="mix-blend-mode:color-dodge" opacity="0.57">
<path d="M813.704 605.277C813.952 603.351 816.894 601.425 820.331 600.98C823.74 600.536 826.324 601.721 826.104 603.647C825.857 605.573 822.887 607.499 819.478 607.944C816.069 608.388 813.485 607.203 813.704 605.277Z" fill="#333333"/>
</g>
<g style="mix-blend-mode:color-dodge" opacity="0.06">
<path d="M829.129 599.597C826.764 598.634 822.833 599.251 820.358 600.955C817.884 602.659 817.774 604.857 820.138 605.82C822.503 606.783 826.435 606.166 828.909 604.462C831.411 602.733 831.493 600.56 829.129 599.597Z" fill="#333333"/>
</g>
<g style="mix-blend-mode:color-dodge" opacity="0.2">
<path d="M1453 555.666L1436.75 544.677L1453 534.108V532.083L1434.06 544.455L1433.15 545.023L1453 558.432V555.666Z" fill="#333333"/>
</g>
<g style="mix-blend-mode:color-dodge" opacity="0.43">
<path d="M1453 622.242L1396.09 614.537L1453 604.338V602.832L1385.78 614.883L1453 623.97V622.242Z" fill="#333333"/>
</g>
<g style="mix-blend-mode:color-dodge" opacity="0.02">
<path d="M1321.83 399.254L1453 420.812V415.33L1425.12 283.735L1319.49 394.167L1321.8 394.587L1423.25 288.501L1450.83 418.688L1323.25 397.723L1321.83 399.254Z" fill="#333333"/>
</g>
<g style="mix-blend-mode:color-dodge" opacity="0.47">
<path d="M1319.6 401.995C1316.66 401.501 1315.72 399.575 1317.51 397.649C1319.3 395.747 1323.12 394.587 1326.03 395.056C1328.97 395.55 1329.91 397.476 1328.12 399.402C1326.33 401.303 1322.51 402.464 1319.6 401.995Z" fill="#333333"/>
</g>
<g style="mix-blend-mode:color-dodge" opacity="0.09">
<path d="M1315.56 393.278C1313.74 395.179 1314.62 397.13 1317.51 397.649C1320.42 398.167 1324.24 397.031 1326.06 395.13C1327.87 393.228 1326.99 391.278 1324.11 390.759C1321.19 390.241 1317.37 391.376 1315.56 393.278Z" fill="#333333"/>
</g>
<g style="mix-blend-mode:color-dodge" opacity="0.7">
<path d="M1453 532.083L1436.59 542.776L1453 426.072V418.737L1451.49 417.602L1433.59 545.023L1433.31 546.925L1453 534.108V532.083Z" fill="#333333"/>
</g>
<g style="mix-blend-mode:color-dodge" opacity="0.51">
<path d="M1453 418.935L1284.52 472.719L1430.12 543.69L1432.24 542.356L1289.38 472.719L1450.99 421.133L1434.06 541.714L1436.81 541.368L1453 426.047V418.935Z" fill="#333333"/>
</g>
<g style="mix-blend-mode:color-dodge" opacity="0.57">
<path d="M1435.73 539.911C1437.93 540.973 1437.58 543.196 1434.96 544.85C1432.33 546.505 1428.42 546.974 1426.22 545.912C1424.02 544.85 1424.38 542.628 1426.99 540.973C1429.63 539.319 1433.53 538.85 1435.73 539.911Z" fill="#333333"/>
</g>
<g style="mix-blend-mode:color-dodge" opacity="0.32">
<path d="M1429.24 542.159C1428.97 544.085 1431.53 545.295 1434.94 544.85C1438.35 544.43 1441.34 542.504 1441.62 540.578C1441.89 538.652 1439.34 537.442 1435.93 537.886C1432.52 538.306 1429.52 540.232 1429.24 542.159Z" fill="#333333"/>
</g>
<g style="mix-blend-mode:color-dodge" opacity="0.44">
<path d="M1453 419.058L1323.26 397.723L1321.83 399.254L1449.07 420.17L1288.83 471.336L1317.48 400.982L1314.79 401.106L1285.07 474.102L1453 420.491V419.058Z" fill="#333333"/>
</g>
<g style="mix-blend-mode:color-dodge" opacity="0.07">
<path d="M1310.03 401.452C1310.83 399.476 1314.18 397.797 1317.51 397.649C1320.84 397.525 1322.9 399.007 1322.1 400.982C1321.3 402.958 1317.95 404.637 1314.62 404.785C1311.3 404.909 1309.23 403.427 1310.03 401.452Z" fill="#333333"/>
</g>
<g style="mix-blend-mode:color-dodge" opacity="0.69">
<path d="M1326.03 395.081C1323.09 394.587 1319.27 395.747 1317.51 397.673C1315.72 399.575 1316.66 401.526 1319.6 402.02C1322.54 402.513 1326.36 401.353 1328.12 399.427C1329.91 397.525 1328.97 395.574 1326.03 395.081Z" fill="#333333"/>
</g>
<g style="mix-blend-mode:color-dodge" opacity="0.48">
<path d="M813.733 665.777L821.294 604.091L818.545 604.462L811.039 665.777H813.733Z" fill="#333333"/>
</g>
<g style="mix-blend-mode:color-dodge" opacity="0.48">
<path d="M728.199 665.777L716.074 638.169L815.163 603.573L814.311 602.289L712.83 637.725L725.175 665.777H728.199Z" fill="#333333"/>
</g>
<g style="mix-blend-mode:color-dodge" opacity="0.32">
<path d="M813.704 605.277C813.952 603.351 816.894 601.425 820.331 600.98C823.74 600.536 826.324 601.721 826.104 603.647C825.857 605.573 822.887 607.499 819.478 607.944C816.069 608.388 813.485 607.203 813.704 605.277Z" fill="#333333"/>
</g>
<g style="mix-blend-mode:color-dodge" opacity="0.22">
<path d="M816.373 605.943C819.645 604.807 821.404 602.585 820.36 600.955C819.287 599.35 815.796 598.955 812.524 600.091C809.252 601.227 807.492 603.449 808.537 605.079C809.609 606.684 813.101 607.079 816.373 605.943Z" fill="#333333"/>
</g>
<g style="mix-blend-mode:color-dodge" opacity="0.28">
<path d="M703.948 665.777L714.368 641.231L725.174 665.777H728.198L714.533 634.663L701.309 665.777H703.948Z" fill="#333333"/>
</g>
<g style="mix-blend-mode:color-dodge" opacity="0.23">
<path d="M1015.81 481.115L1102.12 523.193L1058.24 538.504L1057.74 537.936L1011.86 483.066L1014 482.226L1015.76 481.115H1015.81ZM1097.42 523.243L1015.48 483.313L1059.83 536.355L1097.39 523.243H1097.42Z" fill="#333333"/>
</g>
<g style="mix-blend-mode:color-dodge" opacity="0.59">
<path d="M1010.21 484.868C1008.01 483.807 1008.36 481.584 1010.98 479.93C1013.62 478.275 1017.52 477.806 1019.72 478.868C1021.92 479.93 1021.56 482.152 1018.95 483.807C1016.31 485.461 1012.41 485.93 1010.21 484.868Z" fill="#333333"/>
</g>
<g style="mix-blend-mode:color-dodge" opacity="0.07">
<path d="M1019.06 480.448C1017.77 478.917 1014.17 478.695 1010.98 479.929C1007.79 481.164 1006.25 483.411 1007.54 484.942C1008.83 486.473 1012.43 486.696 1015.62 485.461C1018.81 484.226 1020.35 481.979 1019.06 480.448Z" fill="#333333"/>
</g>
<g style="mix-blend-mode:color-dodge" opacity="0.15">
<path d="M1009.96 483.387L1012.3 482.917L1014.47 482.078L1060.63 537.294L1060.14 537.714L1019.66 572.829L1009.96 483.387ZM1057.5 537.565L1012.87 484.202L1022.03 568.359L1057.52 537.565H1057.5Z" fill="#333333"/>
</g>
<g style="mix-blend-mode:color-dodge" opacity="0.67">
<path d="M1007.54 484.942C1006.25 483.411 1007.81 481.164 1010.98 479.929C1014.17 478.695 1017.77 478.917 1019.06 480.448C1020.35 481.979 1018.78 484.226 1015.62 485.461C1012.46 486.696 1008.83 486.473 1007.54 484.942Z" fill="#333333"/>
</g>
<g style="mix-blend-mode:color-dodge" opacity="0.29">
<path d="M1017.55 482.029C1017.36 480.176 1014.41 479.238 1010.98 479.93C1007.54 480.621 1004.93 482.671 1005.15 484.523C1005.34 486.375 1008.28 487.313 1011.72 486.622C1015.16 485.93 1017.77 483.881 1017.55 482.029Z" fill="#333333"/>
</g>
<g style="mix-blend-mode:color-dodge" opacity="0.43">
<path d="M1005.59 482.349L1007.38 483.214L823.961 599.671L1019.36 570.063L1009.96 483.387L1012.68 482.819L1022.28 571.125L1020.79 571.347L816.73 602.289L819.452 600.535L1005.59 482.349Z" fill="#333333"/>
</g>
<g style="mix-blend-mode:color-dodge" opacity="0.65">
<path d="M1005.15 484.523C1004.95 482.671 1007.57 480.621 1010.98 479.93C1014.41 479.238 1017.33 480.176 1017.55 482.029C1017.74 483.881 1015.13 485.93 1011.72 486.622C1008.28 487.313 1005.34 486.375 1005.15 484.523Z" fill="#333333"/>
</g>
<g style="mix-blend-mode:color-dodge" opacity="0.51">
<path d="M1010.26 484.868C1012.87 483.214 1013.2 480.991 1010.98 479.929C1008.75 478.868 1004.84 479.361 1002.23 481.016C999.62 482.67 999.29 484.893 1001.52 485.955C1003.74 487.017 1007.65 486.523 1010.26 484.868Z" fill="#333333"/>
</g>
<g style="mix-blend-mode:color-dodge" opacity="0.65">
<path d="M1453 622.242L1390.51 613.796L1335.96 665.777H1338.73L1391.36 615.624L1453 623.97V622.242Z" fill="#333333"/>
</g>
<g style="mix-blend-mode:color-dodge" opacity="0.65">
<path d="M1453 652.368L1395.87 665.777H1402.33L1453 653.875V652.368Z" fill="#333333"/>
</g>
<g style="mix-blend-mode:color-dodge" opacity="0.19">
<path d="M1113.03 665.777L1123.7 635.576L1182.92 665.777H1187.65L1122.16 632.416L1110.39 665.777H1113.03Z" fill="#333333"/>
</g>
<g style="mix-blend-mode:color-dodge" opacity="0.03">
<path d="M1110.39 665.777H1113.03L1123.1 637.305L1120.4 637.453L1110.39 665.777Z" fill="#333333"/>
</g>
<g style="mix-blend-mode:color-dodge" opacity="0.03">
<path d="M1104.07 665.777L1026.89 575.693L1118.45 632.514L1120.7 631.28L1014.77 565.495L1100.66 665.777H1104.07Z" fill="#333333"/>
</g>
<g style="mix-blend-mode:color-dodge" opacity="0.37">
<path d="M1127.77 637.206C1128.46 635.255 1126.31 633.798 1122.93 633.996C1119.58 634.194 1116.28 635.922 1115.59 637.898C1114.9 639.848 1117.05 641.305 1120.43 641.108C1123.78 640.91 1127.08 639.182 1127.77 637.206Z" fill="#333333"/>
</g>
<g style="mix-blend-mode:color-dodge" opacity="0.69">
<path d="M1064.48 665.777L1025.79 578.385L1100.66 665.777H1104.07L1024.34 572.705L1022.61 573.397L1020.79 573.915L1061.43 665.777H1064.48Z" fill="#333333"/>
</g>
<g style="mix-blend-mode:color-dodge" opacity="0.42">
<path d="M1016.14 575.471C1015.37 573.767 1017.49 571.569 1020.85 570.581C1024.2 569.594 1027.53 570.186 1028.27 571.89C1029.01 573.594 1026.92 575.792 1023.57 576.755C1020.21 577.743 1016.89 577.15 1016.14 575.446V575.471Z" fill="#333333"/>
</g>
<g style="mix-blend-mode:color-dodge" opacity="0.37">
<path d="M1028.93 571.075C1027.64 569.544 1024.01 569.347 1020.82 570.582C1017.66 571.841 1016.12 574.088 1017.44 575.619C1018.76 577.15 1022.36 577.348 1025.55 576.113C1028.71 574.854 1030.25 572.606 1028.93 571.075Z" fill="#333333"/>
</g>
<g style="mix-blend-mode:color-dodge" opacity="0.6">
<path d="M1272.75 665.777L1273.87 558.827L1388.99 614.957L1309.37 665.777H1312.5L1391.82 615.13L1392.87 614.463L1271.18 555.148L1270 665.777H1272.75Z" fill="#333333"/>
</g>
<g style="mix-blend-mode:color-dodge" opacity="0.18">
<path d="M1312.48 665.777L1383.58 620.39L1335.96 665.777H1338.73L1398.29 609.03L1309.37 665.777H1312.48Z" fill="#333333"/>
</g>
<g style="mix-blend-mode:color-dodge" opacity="0.7">
<path d="M492.903 665.777L560.897 652.393L553.748 665.777H556.36L564.746 650.121L485.205 665.777H492.903Z" fill="#333333"/>
</g>
<g style="mix-blend-mode:color-dodge" opacity="0.31">
<path d="M672.577 665.777H675.602L717.448 636.91L568.869 649.973L568.457 651.529L711.454 638.984L672.577 665.777Z" fill="#333333"/>
</g>
<g style="mix-blend-mode:color-dodge" opacity="0.31">
<path d="M568.21 665.777L565.021 653.998L562.299 654.665L565.323 665.777H568.21Z" fill="#333333"/>
</g>
<g style="mix-blend-mode:color-dodge" opacity="0.23">
<path d="M557.569 656.023C557.074 654.245 559.439 652.121 562.848 651.257C566.23 650.417 569.392 651.183 569.859 652.961C570.354 654.739 567.99 656.863 564.58 657.727C561.171 658.567 558.037 657.801 557.569 656.023Z" fill="#333333"/>
</g>
<g style="mix-blend-mode:color-dodge" opacity="0.13">
<path d="M569.888 647.183C566.506 647.479 563.344 649.306 562.822 651.257C562.327 653.208 564.664 654.541 568.046 654.245C571.428 653.949 574.589 652.121 575.112 650.171C575.607 648.22 573.27 646.886 569.888 647.183Z" fill="#333333"/>
</g>
<g style="mix-blend-mode:color-dodge" opacity="0.68">
<path d="M706.918 641.7C707.742 639.725 711.124 638.046 714.451 637.947C717.778 637.848 719.812 639.355 718.96 641.33C718.108 643.306 714.753 644.985 711.427 645.084C708.1 645.182 706.093 643.676 706.918 641.7Z" fill="#333333"/>
</g>
<g style="mix-blend-mode:color-dodge" opacity="0.48">
<path d="M714.204 642.812C716.706 641.083 716.816 638.91 714.451 637.947C712.087 636.984 708.155 637.577 705.681 639.305C703.179 641.034 703.096 643.207 705.433 644.17C707.798 645.133 711.729 644.54 714.204 642.812Z" fill="#333333"/>
</g>
<g style="mix-blend-mode:color-dodge" opacity="0.13">
<path d="M556.36 665.777L562.299 654.714L565.323 665.777H568.21L565.021 653.998L562.326 654.665L559.714 654.64L553.748 665.777H556.36Z" fill="#333333"/>
</g>
<g style="mix-blend-mode:color-dodge" opacity="0.67">
<path d="M555.012 654.788C556.057 652.813 559.577 651.232 562.848 651.257C566.12 651.282 567.907 652.912 566.835 654.887C565.79 656.863 562.271 658.443 558.999 658.418C555.727 658.394 553.94 656.764 555.012 654.788Z" fill="#333333"/>
</g>
<g style="mix-blend-mode:color-dodge" opacity="0.14">
<path d="M569.859 652.961C569.364 651.183 566.23 650.417 562.848 651.257C559.439 652.097 557.102 654.22 557.569 656.023C558.037 657.826 561.198 658.567 564.58 657.727C567.989 656.887 570.326 654.764 569.859 652.961Z" fill="#333333"/>
</g>
<g style="mix-blend-mode:color-dodge" opacity="0.11">
<path d="M1453 286.13L1430.21 285.488L1429.27 287.068L1453 287.735V286.13Z" fill="#333333"/>
</g>
<g style="mix-blend-mode:color-dodge" opacity="0.11">
<path d="M1453 415.33L1426.22 288.921L1423.47 289.538L1451.51 421.874L1453 420.639V415.33Z" fill="#333333"/>
</g>
<g style="mix-blend-mode:color-dodge" opacity="0.04">
<path d="M1432.13 282.722C1428.91 282.624 1425.34 284.155 1424.19 286.13C1423.03 288.106 1424.71 289.76 1427.92 289.859C1431.14 289.958 1434.72 288.427 1435.87 286.451C1437.03 284.476 1435.35 282.821 1432.13 282.722Z" fill="#333333"/>
</g>
<g style="mix-blend-mode:color-dodge" opacity="0.11">
<path d="M1043.69 447.012L1311.57 397.994L1311.65 399.501L1054.69 446.518L1286.03 471.756L1314.79 401.106L1317.48 400.982L1287.9 473.657L1043.69 447.012Z" fill="#333333"/>
</g>
<g style="mix-blend-mode:color-dodge" opacity="0.09">
<path d="M1310.03 401.452C1310.83 399.476 1314.18 397.797 1317.51 397.649C1320.84 397.525 1322.9 399.007 1322.1 400.982C1321.3 402.958 1317.95 404.637 1314.62 404.785C1311.3 404.909 1309.23 403.427 1310.03 401.452Z" fill="#333333"/>
</g>
<g style="mix-blend-mode:color-dodge" opacity="0.47">
<path d="M1311.46 402.192C1314.9 401.575 1317.59 399.55 1317.51 397.673C1317.43 395.797 1314.57 394.784 1311.16 395.426C1307.75 396.068 1305.03 398.068 1305.11 399.945C1305.19 401.822 1308.05 402.834 1311.46 402.192Z" fill="#333333"/>
</g>
<g style="mix-blend-mode:color-dodge" opacity="0.24">
<path d="M1055.08 446.568L1291.22 472.324L1098.85 524.231L1049.71 450L1052.35 449.087L1100.72 522.206L1282.67 473.089L1053.84 448.123L1055.08 446.568Z" fill="#333333"/>
</g>
<g style="mix-blend-mode:color-dodge" opacity="0.55">
<path d="M1057.03 447.63C1055.96 446.024 1052.47 445.629 1049.19 446.765C1045.92 447.901 1044.16 450.124 1045.21 451.753C1046.28 453.359 1049.77 453.754 1053.04 452.618C1056.31 451.482 1058.07 449.259 1057.03 447.63Z" fill="#333333"/>
</g>
<g style="mix-blend-mode:color-dodge" opacity="0.37">
<path d="M1044.46 449.655L1046.64 450.223L1012.76 479.609L1096.24 520.304L1049.72 450L1052.36 449.087L1103.3 526.108L1009.19 480.251L1044.46 449.655Z" fill="#333333"/>
</g>
<g style="mix-blend-mode:color-dodge" opacity="0.51">
<path d="M1050.24 451.383C1052.35 449.531 1051.89 447.482 1049.19 446.765C1046.5 446.049 1042.59 446.963 1040.48 448.815C1038.36 450.667 1038.83 452.717 1041.52 453.433C1044.22 454.149 1048.12 453.235 1050.24 451.383Z" fill="#333333"/>
</g>
</svg>
